<svg xmlns="http://www.w3.org/2000/svg" viewBox="0 0 80.2263 29.6994">
 <defs>
  <style type="text/css">
   <![CDATA[
    .fil1 {fill:#7DB194;fill-rule:nonzero}
    .fil0 {fill:url(#id0)}
   ]]>
  </style>
  <linearGradient id="id0" gradientUnits="userSpaceOnUse" x1="0" y1="14.6164" x2="30.1923" y2="14.6164">
   <stop offset="0" style="stop-color:#C3E1CD"/>
   <stop offset="1" style="stop-color:#EDF5F0"/>
  </linearGradient>
 </defs>
 
  <metadata id="CorelCorpID_0Corel-Layer"/>
  <path class="fil0" d="M0 29.6994c0,0 3.22189,-4.52104 9.66568,-2.33847 4.452,1.50795 8.24012,0.713981 11.2349,-1.40141l-0.0434768 -0.063743 -0.0526039 -0.0791022 -0.0517697 -0.0797401 -0.050543 -0.0797892 -0.0501995 -0.081016 -0.0496106 -0.0821446 -0.0487764 -0.0825862 -0.0476969 -0.0829297 -0.0475496 -0.0844509 -0.0466664 -0.0850888 -0.0458322 -0.0854814 -0.0448998 -0.0860703 -0.044311 -0.0866591 -0.0438203 -0.0880331 -0.0434277 -0.0893089 -0.0421028 -0.0891127 -0.0414649 -0.0895543 -0.0410232 -0.0910755 -0.0403362 -0.0917134 -0.0394039 -0.0920569 -0.038766 -0.0926948 -0.038128 -0.093529 -0.0376373 -0.0946577 -0.0368522 -0.0952956 -0.0361161 -0.0957372 -0.0354291 -0.0965223 -0.0348894 -0.0975528 -0.034644 -0.0995647 -0.0347422 -0.103196 -0.0343005 -0.106287 -0.0331719 -0.107367 -0.0316998 -0.107563 -0.0306693 -0.108545 -0.0294916 -0.109821 -0.0283139 -0.110508 -0.0268418 -0.110409 -0.0258603 -0.111587 -0.0179599 -0.0819483c-2.36585,1.88795 -5.1886,2.39098 -8.14085,1.92632l-0.119438 0.0662456 -0.123315 0.0594739 -0.125376 0.0522604 -0.125965 0.0444582 -0.125621 0.0371466 -0.124591 0.0300314 -0.117427 0.0225235 -0.100105 0.0151629 -0.085923 0.0113354 -0.0845491 0.0094216 -0.0857268 0.00804762 -0.0873952 0.00628107 -0.0868554 0.00451452 -0.0878368 0.0026989 -0.0205607 0.000196283 -0.0361161 0.0133473 -0.114041 0.0366559 -0.116985 0.0316507 -0.119635 0.0268418 -0.123364 0.0213949 -0.125229 0.0157027 -0.126456 0.00937253 -0.132197 0.00348403 -0.140195 -0.00441638 -0.146427 -0.0136908 -0.149372 -0.0246336 -0.150353 -0.0358217 -0.150353 -0.0482366 -0.147065 -0.0599155 -0.139901 -0.0703676 -0.183525 -0.110066 -0.201681 -0.168853 -0.166645 -0.184948 -0.137497 -0.202859 -0.104913 -0.210906 -0.0735572 -0.208747 -0.0467645 -0.201927 -0.0246826 -0.192554 -0.00422009 -0.108201c-0.376913,-0.164289 -0.753287,-0.339619 -1.12858,-0.527413 -2.98562,1.40362 -4.78333,3.91016 -5.76823,7.17131zm28.2239 -16.3364c0.229995,-1.20915 0.368473,-2.42513 0.409349,-3.61853 0.25983,-7.58704 0.363762,-6.44379 1.55898,-9.35388 -8.07686,-0.857169 -15.0906,-0.370436 -20.253,2.0912l0.0147703 0.0575601 0.0271362 0.137447 0.0189904 0.132197 0.0125621 0.128271 0.00677178 0.124885 0.0020119 0.11036 -9.81417e-005 0.0387169 -4.90708e-005 0.0293934 -0.000245354 0.031847 -0.000294425 0.0351347 -0.000686992 0.0407288 -0.00103049 0.0423481 -0.00142305 0.0437712 -0.00264983 0.0636449 -0.00058885 0.0211005 -0.000539779 0.0244864 -0.000294425 0.0292462 -0.000294425 0.0330737 -9.81417e-005 0.0356745 -4.90708e-005 0.0409251 0 0.0425444 4.90708e-005 0.0328775 0.000245354 0.0313563 0.000392567 0.031896 0.000637921 0.0341533 0.000736063 0.0345949 0.00103049 0.0351838 0.0011777 0.0350366 0.00157027 0.0371957 0.00181562 0.0408269 0.00191376 0.0391585 0.00220819 0.0390113 0.00260075 0.0419556 0.00284611 0.0433786 0.00309146 0.0426426 0.00343496 0.0440165 0.00368031 0.0438203 0.00348403 0.0377355 0.00392567 0.0373429 0.00461266 0.0397474 0.00539779 0.0420046 0.00593757 0.0431333 0.00348403 0.0231614c5.91495,-3.09686 12.8304,-2.49854 15.8117,-1.98222 -0.100203,3.52348 -0.437074,6.54796 -0.969444,9.1262l-4.90708e-005 0.000441638 -0.00515244 0.0809178 -0.00554501 0.0807706 -0.00579036 0.0802308 -0.00608478 0.0807706 -0.00691899 0.0885729 -0.00790041 0.0856777 -0.00691899 0.0766977 -0.00696806 0.0763542 -0.00686992 0.0773847 -0.00716434 0.078955 -0.0070662 0.0788568 -0.00711527 0.0780717 -0.00711527 0.0794457 -0.00736063 0.0801818 -0.00726248 0.0799364 -0.0074097 0.0805253 -0.00745877 0.081065 -0.00760598 0.0813104 -0.00750784 0.081065 -0.00765505 0.0812122 -0.00299332 0.0320433 0.185733 -0.0517207 0.257327 -0.0245354 0.145397 0.00790041 0.0262529 -0.013887 0.0344477 -0.0174692 0.0404834 -0.0209532 0.0628107 -0.0303258 0.0700241 -0.0314544 0.0800836 -0.0321414 0.0986324 -0.034644 0.125818 -0.034644 0.160903 -0.0303258 0.240545 -0.0166841 0.379416 0.0456359 0.420979 0.1769 0.345802 0.284415 0.226069 0.318764 0.00721341 0.0167332 0.078955 -0.0897015 0.112961 -0.113354 0.117525 -0.105257 0.123119 -0.0980435 0.115709 -0.0820464zm-22.3313 -8.18801c-3.20791,2.94131 -5.08286,7.26523 -5.21711,13.2998 0.920176,-5.05543 2.91751,-8.59427 5.4262,-11.0508l-0.0203153 -0.0961789 -0.0191867 -0.0966696 -0.0182544 -0.0972584 -0.0169294 -0.096964 -0.0158499 -0.0967677 -0.0153101 -0.101233 -0.0129056 -0.0963751 -0.0113844 -0.0895543 -0.0107956 -0.0903394 -0.00986324 -0.0891617 -0.00932346 -0.0890636 -0.0085874 -0.0896034 -0.00790041 -0.0894561 -0.0070662 -0.0892599 -0.00637921 -0.0891127 -0.00564315 -0.0896524 -0.00480894 -0.0899469 -0.00392567 -0.0887201 -0.0031896 -0.0895052 -0.00225726 -0.0901922 -0.00137398 -0.0894071 -0.000392567 -0.0879349 0.000343496 -0.0889164 0.00112863 -0.0882784 0.00107956 -0.0494634z"/>
  <path class="fil1" d="M21.2254 7.87013c0.442521,0 0.810601,0.0703185 1.09595,0.215028 0.285396,0.140637 0.512839,0.3433 0.682428,0.603817 0.173711,0.264688 0.289469,0.574914 0.351544,0.938823 0.0661475,0.363958 0.0992212,0.765113 0.0992212,1.19939 0,0.363958 -0.0206588,0.748576 -0.0537326,1.15802 -0.0372448,0.409447 -0.0744405,0.83126 -0.115807,1.26554 -0.107514,1.00085 -0.19437,1.98928 -0.260566,2.95706 -0.0703185,0.967775 -0.103392,1.91901 -0.103392,2.84542 0,1.04222 0.0496106,1.98104 0.153052,2.82059 0.0992212,0.835431 0.264688,1.59225 0.496253,2.27051 0.227492,0.678306 0.533547,1.28624 0.913994,1.82391 0.380495,0.53762 0.847846,1.02151 1.40617,1.45991 0.0868554,0.0703185 0.157174,0.132344 0.206785,0.173711 0.0454887,0.0454887 0.0703185,0.0992703 0.0703185,0.165418 0,0.103392 -0.0703185,0.157174 -0.219199,0.157174 -0.0785624,0 -0.16954,-0.0165369 -0.264688,-0.0496597 -0.558328,-0.210906 -1.13319,-0.516961 -1.73289,-0.918115 -0.599695,-0.405325 -1.14149,-0.930579 -1.63774,-1.57571 -0.492181,-0.649354 -0.897457,-1.431 -1.21593,-2.35741 -0.31847,-0.926408 -0.479766,-2.01823 -0.479766,-3.27965 0,-0.85609 0.0289518,-1.70394 0.0868554,-2.54349 0.0579036,-0.839553 0.119929,-1.63362 0.186126,-2.37807 0.0703185,-0.748576 0.132344,-1.43513 0.190248,-2.06377 0.0537326,-0.624476 0.0826844,-1.15797 0.0826844,-1.60467 0,-0.239858 -0.0206588,-0.430106 -0.0578545,-0.566572 -0.0413667,-0.140637 -0.0910264,-0.244029 -0.153052,-0.310177 -0.0620255,-0.0703185 -0.132344,-0.111685 -0.210906,-0.128222 -0.0827334,-0.0165369 -0.157174,-0.0248298 -0.231614,-0.0248298 -0.0950993,0 -0.19437,0.0330737 -0.289518,0.0992703 -0.0992212,0.0620255 -0.19437,0.186126 -0.29364,0.363958 -0.0950993,0.177833 -0.190248,0.417691 -0.281225,0.719624 -0.0950993,0.301884 -0.181955,0.694794 -0.260566,1.1828 -0.0579036,0.297762 -0.119929,0.657598 -0.190248,1.07529 -0.0661475,0.421862 -0.14471,0.868505 -0.231565,1.34415 -0.0827334,0.479717 -0.169589,0.963604 -0.252273,1.46403 -0.0868554,0.496303 -0.165467,0.963653 -0.244029,1.4103 -0.0744405,0.44257 -0.148881,0.843724 -0.215078,1.20351 -0.0703185,0.359836 -0.128173,0.641061 -0.177833,0.843724 -0.202663,0.85609 -0.46318,1.48061 -0.781649,1.87765 -0.31847,0.397032 -0.719624,0.595524 -1.20351,0.595524 -0.355665,0 -0.63689,-0.0826844 -0.843675,-0.24398 -0.206785,-0.161296 -0.359836,-0.363958 -0.467351,-0.603866 -0.103392,-0.24398 -0.169589,-0.508668 -0.19437,-0.794064 -0.0248298,-0.289469 -0.0331228,-0.558328 -0.0331228,-0.80643 0,-1.62537 0.0165369,-3.21767 0.0579036,-4.77268 0.0413667,-1.55918 0.0620255,-3.12252 0.0620255,-4.68999 0,-0.583109 -0.0165369,-1.10424 -0.0496106,-1.5633 -0.0330737,-0.463229 -0.0992703,-0.851968 -0.206785,-1.17044 -0.103392,-0.318421 -0.248151,-0.566572 -0.434277,-0.740283 -0.186077,-0.173711 -0.430106,-0.260566 -0.727868,-0.260566 -0.281225,0 -0.525254,0.165467 -0.732039,0.492181 -0.206785,0.326714 -0.376324,0.773356 -0.516961,1.33998 -0.136466,0.56245 -0.239858,1.23246 -0.314299,1.99758 -0.0703185,0.769235 -0.119978,1.59225 -0.144759,2.47317 -0.0165369,0.603817 -0.0289518,1.22422 -0.0413667,1.85282 -0.0124149,0.628647 -0.0330737,1.24076 -0.0537816,1.83628 -0.0247808,0.591451 -0.0579036,1.1539 -0.0992703,1.68328 -0.0413176,0.529376 -0.0868063,1.00497 -0.14471,1.42271 -0.0579036,0.727868 -0.1241,1.32756 -0.198541,1.79904 -0.0785624,0.475644 -0.144759,0.831309 -0.202663,1.07529 -0.0454887,0.206785 -0.132344,0.355715 -0.252273,0.434277 -0.124051,0.0827334 -0.256395,0.132344 -0.405276,0.157174 -0.153052,0.0247808 -0.301933,0.0371957 -0.454936,0.0371957 -0.153052,0 -0.289518,0.0248298 -0.401203,0.0744405 -0.136466,0.0537816 -0.277103,0.0827334 -0.421813,0.0827334 -0.140637,0 -0.252322,-0.0330737 -0.347422,-0.0951484 -0.0909773,-0.0661475 -0.140637,-0.177833 -0.140637,-0.339129 0,-0.0579036 0.00417102,-0.107514 0.0124149,-0.144759 0.0165369,-0.0992212 0.0496597,-0.310177 0.103392,-0.632769 0.0537816,-0.322592 0.115807,-0.711331 0.182004,-1.17039 0.0702694,-0.454936 0.140588,-0.95536 0.210906,-1.50544 0.0744405,-0.550035 0.140637,-1.10424 0.19437,-1.66257 0.0579036,-0.554206 0.107563,-1.09595 0.144759,-1.6212 0.0413667,-0.525254 0.0620255,-0.992605 0.0620255,-1.39376 0,-0.670013 -0.0206588,-1.26142 -0.0661475,-1.77425 -0.0454887,-0.512839 -0.103392,-0.971897 -0.177833,-1.36893 -0.0703185,-0.401154 -0.157174,-0.760991 -0.256444,-1.07946 -0.103392,-0.318421 -0.210906,-0.624476 -0.322592,-0.909822 -0.111636,-0.285396 -0.227443,-0.574914 -0.347372,-0.860261 -0.115807,-0.285347 -0.231614,-0.599695 -0.3433,-0.938823 -0.144759,-0.434228 -0.248151,-0.864383 -0.310177,-1.29037 -0.0579036,-0.421813 -0.0909773,-0.835431 -0.0909773,-1.22829 0,-0.405325 0.0289518,-0.781699 0.0785624,-1.13319 0.0537816,-0.351544 0.1241,-0.657598 0.206785,-0.914043 0.0868554,-0.260517 0.177833,-0.46318 0.272981,-0.612061 0.0950993,-0.153052 0.190248,-0.227492 0.277103,-0.227492 0.107514,0 0.186077,0.0661966 0.24398,0.19437 0.0579036,0.132344 0.0827334,0.289518 0.0827334,0.475644 0,0.0620255 0,0.140588 -0.00412195,0.227443 -0.00417102,0.0909773 -0.00417102,0.19437 -0.00417102,0.314348 0,0.202614 0.00829297,0.446643 0.0331228,0.736161 0.0247808,0.285347 0.0826844,0.616232 0.16954,0.992556 0.0909773,0.376373 0.219199,0.794064 0.388788,1.25317 0.16954,0.459058 0.401154,0.963604 0.690672,1.51369 0.128173,0.24398 0.248151,0.483888 0.351544,0.723746 0.103392,0.235736 0.202614,0.471473 0.289469,0.707209 0.144759,-0.736161 0.339129,-1.36893 0.574865,-1.90243 0.239907,-0.533547 0.496303,-0.984312 0.773406,-1.35656 0.272981,-0.372202 0.554206,-0.674135 0.847846,-0.909872 0.289518,-0.231565 0.566572,-0.413569 0.835431,-0.53762 0.264688,-0.1241 0.504546,-0.210956 0.715453,-0.256444 0.206785,-0.0413667 0.372251,-0.0661475 0.496303,-0.0661475 0.339129,0 0.628647,0.0950993 0.872676,0.281225 0.239858,0.181955 0.450765,0.442521 0.624476,0.769235 0.173711,0.326714 0.314299,0.707209 0.421862,1.14978 0.107514,0.43835 0.19437,0.913994 0.256395,1.41854 0.0579036,0.504546 0.0992703,1.0298 0.119929,1.57571 0.0207079,0.541791 0.0289518,1.08358 0.0289518,1.61708 0,1.10429 -0.0165369,2.05965 -0.0537326,2.86608 -0.0372448,0.802357 -0.0786115,1.50132 -0.119929,2.09272 -0.0455377,0.595524 -0.0868554,1.10424 -0.1241,1.53023 -0.0330737,0.421862 -0.0537816,0.806479 -0.0537816,1.1539 0,0.0909773 0.0207079,0.157125 0.0537816,0.206785 0.0372448,0.0496106 0.0785624,0.0744405 0.128222,0.0744405 0.0826844,0 0.148881,-0.0372448 0.206785,-0.111685 0.0579036,-0.0703185 0.115807,-0.231614 0.173711,-0.475595 0.0620255,-0.248151 0.132344,-0.607988 0.206785,-1.0877 0.0785624,-0.475644 0.181955,-1.11666 0.310177,-1.92314 0.103392,-0.674135 0.202663,-1.33173 0.289518,-1.97692 0.0909773,-0.645183 0.190248,-1.26142 0.297762,-1.84869 0.107514,-0.583109 0.235736,-1.1249 0.380495,-1.6212 0.148881,-0.496303 0.330836,-0.926408 0.554206,-1.2862 0.21915,-0.359836 0.48801,-0.641061 0.80643,-0.847846 0.314348,-0.206785 0.694843,-0.310177 1.14978,-0.310177z"/>
  <path class="fil1" d="M32.5119 17.6719c-0.260566,0.719624 -0.492181,1.35239 -0.698965,1.89831 -0.206785,0.545913 -0.413569,1.00085 -0.624476,1.36893 -0.210956,0.36808 -0.438399,0.645183 -0.682428,0.831309 -0.248151,0.186126 -0.53762,0.277103 -0.868505,0.277103 -0.281225,0 -0.521083,-0.0827334 -0.715502,-0.248151 -0.19437,-0.165418 -0.347372,-0.376373 -0.459058,-0.628647 -0.111636,-0.256395 -0.19437,-0.537669 -0.24398,-0.843675 -0.0454887,-0.306055 -0.0703185,-0.599695 -0.0703185,-0.885091 0,-0.210906 0,-0.409447 0,-0.603817 0,-0.19437 0.0082439,-0.376324 0.0248298,-0.545913 -0.177882,0.719624 -0.359836,1.31932 -0.541791,1.80321 -0.182004,0.48801 -0.363958,0.872627 -0.550084,1.16627 -0.186077,0.289518 -0.380495,0.496303 -0.58728,0.624525 -0.206785,0.124051 -0.421813,0.186077 -0.649305,0.186077 -0.169589,0 -0.339129,-0.0413176 -0.512839,-0.128173 -0.173711,-0.0827334 -0.335007,-0.248151 -0.479766,-0.488059 -0.14471,-0.24398 -0.264688,-0.58728 -0.355665,-1.02563 -0.0950993,-0.438399 -0.140588,-1.02156 -0.140588,-1.73706 0,-0.177833 0.00412195,-0.397032 0.0124149,-0.649305 0.0082439,-0.256395 0.0247808,-0.521083 0.0496106,-0.802308 0.0206588,-0.277103 0.0537816,-0.550084 0.0868554,-0.823016 0.0371957,-0.268859 0.0868554,-0.512839 0.140588,-0.732039 0.0248298,-0.0951484 0.0579036,-0.215078 0.0992703,-0.351544 0.0372448,-0.136466 0.0785624,-0.227492 0.119929,-0.264688 0.0868554,-0.0827334 0.161296,-0.157174 0.22337,-0.219199 0.0620255,-0.0661966 0.111636,-0.0992703 0.153003,-0.0992703 0.0537816,0 0.103392,0.0248298 0.136466,0.0703185 0.0372448,0.0413667 0.0744405,0.0661475 0.115807,0.0661475 0.0248298,0 0.0703185,-0.0206588 0.140637,-0.0620255 0.0702694,-0.0413667 0.144759,-0.0868554 0.223321,-0.132344 0.0827334,-0.0496106 0.161296,-0.0950993 0.235736,-0.132344 0.0785624,-0.0413667 0.132344,-0.0620255 0.165418,-0.0620255 0.0951484,0 0.144759,0.0868554 0.144759,0.264688 0,0.0496106 -0.00412195,0.107514 -0.0124149,0.169589 -0.0082439,0.0661475 -0.0206588,0.14471 -0.0371957,0.231565 -0.0703185,0.516961 -0.1241,1.01743 -0.148881,1.49715 -0.0289518,0.479766 -0.0455377,0.996727 -0.0455377,1.54264 0,0.310177 0.00417102,0.58728 0.0124149,0.839553 0.00829297,0.248151 0.0289518,0.463229 0.0579036,0.645183 0.0248298,0.182004 0.0744405,0.322592 0.136466,0.425984 0.0661966,0.0992703 0.153052,0.148881 0.268859,0.148881 0.161296,0 0.310177,-0.103392 0.446643,-0.318421 0.136466,-0.215078 0.264688,-0.492181 0.380495,-0.831309 0.119929,-0.339129 0.231614,-0.715502 0.335007,-1.1249 0.103392,-0.413618 0.206785,-0.814772 0.301884,-1.20768 0.0992703,-0.392861 0.198541,-0.752698 0.297811,-1.08353 0.0992212,-0.330885 0.202663,-0.583158 0.310177,-0.752747 0.103392,-0.161296 0.24398,-0.29364 0.417691,-0.397032 0.173711,-0.107514 0.335007,-0.157125 0.48801,-0.157125 0.177882,0 0.306055,0.0661475 0.384666,0.198492 0.0744405,0.132344 0.111636,0.388788 0.111636,0.769284 0,0.272932 -0.00412195,0.533498 -0.0206588,0.773356 -0.0165369,0.244029 -0.0330737,0.496303 -0.0496597,0.752698 -0.0165369,0.260566 -0.0330737,0.533547 -0.0496106,0.831309 -0.0165369,0.29364 -0.0248298,0.624476 -0.0248298,0.984312 0,0.335007 0.0165859,0.603817 0.0454887,0.806479 0.0248298,0.206785 0.0661966,0.36808 0.111685,0.479766 0.0496106,0.111636 0.103392,0.190199 0.157174,0.231565 0.0579036,0.0372448 0.115807,0.0579036 0.173711,0.0579036 0.136466,0 0.264688,-0.0579036 0.384617,-0.181955 0.124051,-0.119929 0.24398,-0.29364 0.372202,-0.525254 0.1241,-0.231614 0.252273,-0.512839 0.384617,-0.843675 0.136515,-0.330885 0.281225,-0.707209 0.442521,-1.12495 0.0413667,-0.0992703 0.0910264,-0.173711 0.144759,-0.223321 0.0579036,-0.0537816 0.119929,-0.0785624 0.182004,-0.0785624 0.0496106,0 0.0909773,0.0165369 0.128173,0.0537326 0.0372448,0.0372448 0.0537816,0.0868554 0.0537816,0.148881 0,0.0579036 -0.0124149,0.115807 -0.0330737,0.169589z"/>
  <path class="fil1" d="M35.684 20.0127l0.169589 -0.144759c0.16954,-0.153003 0.388739,-0.409447 0.649305,-0.765113 0.264688,-0.355665 0.525254,-0.85609 0.781649,-1.50127 0.0910264,-0.202663 0.202663,-0.301884 0.339129,-0.301884 0.111685,0 0.169589,0.0620255 0.169589,0.19437 0,0.0454887 -0.0124149,0.107514 -0.0372448,0.177833 -0.186077,0.525254 -0.384617,0.976019 -0.599646,1.34827 -0.210956,0.36808 -0.434277,0.686501 -0.657598,0.942945 -0.227492,0.260566 -0.450814,0.467351 -0.674135,0.624476 -0.223321,0.157174 -0.430106,0.277103 -0.624525,0.355715 -0.210906,0.318421 -0.454936,0.591402 -0.73199,0.818845 -0.277103,0.231614 -0.603817,0.347422 -0.976068,0.347422 -0.24398,0 -0.446643,-0.0537816 -0.616232,-0.157174 -0.16954,-0.107514 -0.310177,-0.235736 -0.413569,-0.388739 -0.103392,-0.153052 -0.181955,-0.322592 -0.231614,-0.504595 -0.0454887,-0.181955 -0.0702694,-0.343251 -0.0702694,-0.48801 0,-0.277103 0.0330737,-0.521083 0.103392,-0.740283 0.0661475,-0.219199 0.148881,-0.405325 0.248102,-0.558328 0.0951484,-0.153052 0.198541,-0.26881 0.306055,-0.3433 0.111685,-0.0785624 0.202663,-0.115758 0.272981,-0.115758 0.0992703,0 0.19437,0.0785624 0.29364,0.239858 0.0950993,0.165418 0.202663,0.388739 0.314299,0.682379 0.161296,0.434277 0.297811,0.748576 0.409447,0.942994 0.1241,-0.0165859 0.239858,-0.0331228 0.351544,-0.0537816 0.115807,-0.0207079 0.227492,-0.0496597 0.339129,-0.0909773 0.0579036,-0.111685 0.0868554,-0.215078 0.0868554,-0.301933 0,-0.148881 -0.0413667,-0.31847 -0.119929,-0.516961 -0.0827334,-0.198541 -0.186126,-0.409447 -0.310177,-0.628647 -0.1241,-0.223321 -0.264688,-0.450814 -0.41774,-0.678257 -0.153003,-0.231614 -0.306006,-0.450814 -0.454936,-0.653427 -0.148881,-0.206834 -0.289469,-0.397081 -0.417691,-0.570743 -0.128222,-0.173711 -0.231614,-0.31847 -0.301933,-0.430155 -0.0579036,0.186126 -0.107514,0.3433 -0.14471,0.479766 -0.0413667,0.132344 -0.0827334,0.248151 -0.1241,0.343251 -0.0537816,0.161296 -0.107514,0.268859 -0.148881,0.322592 -0.0454887,0.0496597 -0.103392,0.0786115 -0.177833,0.0786115 -0.128222,0 -0.19437,-0.0786115 -0.19437,-0.231614 0,-0.0579036 0.0082439,-0.107514 0.0247808,-0.157174 0.0661966,-0.210906 0.119929,-0.397032 0.165467,-0.56245 0.0413176,-0.165418 0.0826844,-0.306055 0.115758,-0.417691 0.0289518,-0.140637 0.0579036,-0.256444 0.0827334,-0.351544 -0.136466,-0.169589 -0.260566,-0.36808 -0.36808,-0.58728 -0.111685,-0.22337 -0.165418,-0.508717 -0.165418,-0.856139 0,-0.248151 0.0454887,-0.525205 0.140588,-0.83126 0.0910264,-0.301933 0.210956,-0.583158 0.355715,-0.847846 0.14471,-0.260566 0.306006,-0.479766 0.479717,-0.657598 0.173711,-0.177833 0.339129,-0.26881 0.504595,-0.26881 0.0950993,0 0.181955,0.0289518 0.260517,0.0909773 0.0744405,0.0620255 0.140637,0.140637 0.190248,0.235736 0.0537816,0.0992703 0.0951484,0.210956 0.1241,0.335007 0.0289518,0.124051 0.0413176,0.248151 0.0413176,0.36808 0,0.277103 -0.0496106,0.58728 -0.14471,0.934701 -0.00829297,0.0330737 -0.0207079,0.0785624 -0.0331228,0.136466 -0.0082439,0.0620255 -0.0165369,0.124051 -0.0165369,0.190248 0,0.235736 0.153052,0.56245 0.459107,0.98019 0.310177,0.421813 0.690672,0.893286 1.15385,1.41854 0.215078,0.252273 0.376373,0.512839 0.471473,0.794064 0.0951484,0.277103 0.144759,0.599695 0.144759,0.963653 0,0.111636 -0.0124149,0.235736 -0.0372448,0.36808 -0.0206588,0.132344 -0.0496106,0.244029 -0.0826844,0.335007l-0.256444 0.653427zm0.244029 -11.4767c0.0744405,0.0661966 0.107514,0.140637 0.107514,0.231614 0,0.0496106 -0.0082439,0.0992703 -0.0289518,0.153003 -0.0206588,0.0496597 -0.0371957,0.0951484 -0.0537326,0.136515 -0.0744405,0.14471 -0.169589,0.301884 -0.289518,0.467302 -0.124051,0.165467 -0.277103,0.335007 -0.463229,0.508717 -0.186077,0.173711 -0.409398,0.347422 -0.669964,0.521083 -0.264688,0.173711 -0.574865,0.347422 -0.938823,0.51701 -0.0496106,0.0206588 -0.0951484,0.0330737 -0.136466,0.0330737 -0.111685,0 -0.169589,-0.0620255 -0.169589,-0.19437 0,-0.0620746 0.0207079,-0.128222 0.0620255,-0.190248 0.0331228,-0.0579036 0.103392,-0.161296 0.210956,-0.310177 0.111636,-0.14893 0.231565,-0.339178 0.363909,-0.570743 0.132344,-0.227492 0.268859,-0.492181 0.405325,-0.794064 0.140637,-0.297811 0.252273,-0.624525 0.339129,-0.98019 0.0165369,-0.0827334 0.0537816,-0.140637 0.103392,-0.181955 0.0537816,-0.0413667 0.0992703,-0.0620746 0.140637,-0.0620746 0.0579036,0 0.103392,0.0331228 0.144759,0.0992703 0.0744405,0.103392 0.148881,0.165418 0.223321,0.186126 0.0785624,0.0206588 0.132344,0.0454887 0.165418,0.0785624 0.0744405,0.0661966 0.140637,0.115807 0.206785,0.144759 0.0620255,0.0330737 0.157174,0.103392 0.277103,0.206785z"/>
  <path class="fil1" d="M41.7925 17.2997c0.0496597,0 0.0909773,0.0165369 0.128222,0.0537326 0.0371957,0.0372448 0.0537816,0.0868554 0.0537816,0.148881 0,0.0579036 -0.0124149,0.115807 -0.0372448,0.169589 -0.161296,0.471473 -0.31847,0.901579 -0.467351,1.29037 -0.148881,0.392861 -0.29364,0.75682 -0.442521,1.0877 -0.136466,0.314299 -0.26881,0.583109 -0.39291,0.810601 -0.124051,0.227443 -0.24398,0.417691 -0.363909,0.570743 -0.115807,0.153003 -0.231614,0.277103 -0.351544,0.36808 -0.115807,0.0909773 -0.235736,0.161296 -0.355715,0.198492 -0.119929,0.0413667 -0.264688,0.0620746 -0.425984,0.0620746 -0.177833,0 -0.36808,-0.0372448 -0.578987,-0.115807 -0.210906,-0.0744405 -0.405325,-0.22337 -0.58728,-0.442521 -0.181955,-0.215078 -0.335007,-0.521132 -0.454936,-0.914043 -0.119929,-0.392861 -0.181955,-0.901579 -0.181955,-1.53435 0,-0.169589 0.0082439,-0.454936 0.0289518,-0.860261 0.0206588,-0.401154 0.0496106,-0.889164 0.0868554,-1.45991 0.0330737,-0.566621 0.0785624,-1.2118 0.132344,-1.93138 0.0537326,-0.719624 0.111636,-1.47649 0.173662,-2.27885 0.0413667,-0.492131 0.0910264,-1.0298 0.153052,-1.61708 0.0620255,-0.583109 0.124051,-1.15797 0.186077,-1.71218 0.0661966,-0.558328 0.132344,-1.07117 0.194419,-1.53852 0.0661475,-0.471473 0.124051,-0.839553 0.16954,-1.10424 0.0579036,-0.281225 0.165467,-0.504546 0.326714,-0.665842 0.161296,-0.161296 0.3433,-0.335007 0.545962,-0.521132 0.0744405,-0.0744405 0.148881,-0.153003 0.231565,-0.235736 0.0786115,-0.0868554 0.161296,-0.165418 0.244029,-0.235736 0.0785624,-0.0744405 0.157174,-0.136466 0.235736,-0.190248 0.0744405,-0.0496106 0.148881,-0.0785624 0.223321,-0.0785624 0.111685,0 0.169589,0.0579036 0.169589,0.16954 0,0.0909773 -0.0207079,0.252273 -0.0620255,0.483888 -0.0413667,0.235736 -0.0951484,0.61211 -0.169589,1.12907 -0.0703185,0.516961 -0.157174,1.2118 -0.260566,2.08855 -0.0992212,0.876798 -0.206785,2.0017 -0.318421,3.3748 -0.0248298,0.277103 -0.0537816,0.603817 -0.0868554,0.98019 -0.0331228,0.380495 -0.0661966,0.781649 -0.0951484,1.20763 -0.0330737,0.421862 -0.0661475,0.85609 -0.0909773,1.29449 -0.0289518,0.442521 -0.0579036,0.85609 -0.0785624,1.249 -0.0248298,0.39291 -0.0454887,0.748576 -0.0620746,1.07117 -0.0165369,0.326714 -0.0247808,0.583158 -0.0247808,0.777527 0,0.558328 0.0579036,0.996727 0.177833,1.31515 0.115807,0.31847 0.310177,0.479766 0.58728,0.479766 0.153003,0 0.289518,-0.0703185 0.409447,-0.206785 0.124051,-0.136466 0.239858,-0.326714 0.351544,-0.56245 0.115807,-0.239907 0.231565,-0.51701 0.351544,-0.839602 0.124051,-0.318421 0.256395,-0.66172 0.401154,-1.03392 0.0413667,-0.0992703 0.0868554,-0.173711 0.144759,-0.223321 0.0579036,-0.0537816 0.115807,-0.0785624 0.181955,-0.0785624z"/>
  <path class="fil1" d="M44.6752 9.23906c0.0248298,0.0496106 0.0371957,0.103392 0.0371957,0.157174 0,0.157125 -0.0992212,0.318421 -0.29364,0.48801 -0.161296,0.144759 -0.310177,0.285347 -0.446643,0.421862 -0.136466,0.136466 -0.264688,0.260517 -0.376373,0.372202 -0.111636,0.107514 -0.215028,0.19437 -0.301884,0.260566 -0.0909773,0.0620255 -0.161296,0.0950993 -0.219199,0.0950993 -0.0413667,0 -0.0785624,-0.0082439 -0.115807,-0.0248298 -0.0330737,-0.0165369 -0.0703185,-0.0537326 -0.103392,-0.107514 -0.0951484,-0.186126 -0.190248,-0.380495 -0.289518,-0.583158 -0.0950993,-0.202614 -0.181955,-0.392861 -0.260517,-0.570694 -0.0744895,-0.177882 -0.140637,-0.330885 -0.186126,-0.463229 -0.0496597,-0.136466 -0.0744405,-0.227443 -0.0744405,-0.272981 0,-0.0909773 0.0413667,-0.186077 0.119929,-0.29364 0.0330737,-0.0454887 0.107514,-0.140588 0.227443,-0.277054 0.115807,-0.136515 0.239907,-0.281274 0.372251,-0.434277 0.136466,-0.157174 0.260517,-0.297762 0.376324,-0.425984 0.119978,-0.128222 0.198541,-0.215078 0.235736,-0.252273 0.0992703,-0.115807 0.177882,-0.173711 0.244029,-0.173711 0.0744405,0 0.128222,0.0537816 0.169589,0.161296 0.0247808,0.0537816 0.0785624,0.177833 0.165418,0.359787 0.0826844,0.186126 0.173711,0.388788 0.26881,0.599695 0.0992703,0.215078 0.190248,0.41774 0.281225,0.603817 0.0868554,0.182004 0.144759,0.306055 0.169589,0.359836zm1.61296 8.06062c0.0454887,0 0.0868554,0.0165369 0.124051,0.0537326 0.0372448,0.0372448 0.0537816,0.0868554 0.0537816,0.148881 0,0.0579036 -0.00829297,0.115807 -0.0331228,0.169589 -0.186077,0.533498 -0.359787,1.02151 -0.516961,1.45578 -0.157125,0.434277 -0.314299,0.823016 -0.479717,1.16214 -0.231614,0.508717 -0.454936,0.901579 -0.670013,1.17044 -0.215078,0.26881 -0.454936,0.450765 -0.719624,0.53762 -0.0661475,0.0165369 -0.140637,0.0331228 -0.219199,0.0496597 -0.0827334,0.0165369 -0.165418,0.0247808 -0.256395,0.0247808 -0.202663,0 -0.41774,-0.0413176 -0.645183,-0.119929 -0.231614,-0.0826844 -0.446692,-0.235736 -0.645183,-0.46318 -0.198541,-0.22337 -0.359836,-0.541791 -0.48801,-0.951238 -0.132344,-0.405325 -0.194419,-0.938823 -0.194419,-1.59225 0,-0.583158 0.0207079,-1.14149 0.0579036,-1.67916 0.0413667,-0.53762 0.103392,-1.07941 0.182004,-1.6295 0.124051,-0.248151 0.26881,-0.475595 0.442521,-0.682379 0.173711,-0.206785 0.351544,-0.384617 0.529376,-0.533498 0.177833,-0.14893 0.339129,-0.264688 0.48801,-0.347422 0.148881,-0.0785624 0.260566,-0.119929 0.335007,-0.119929 0.0330737,0 0.0496106,0.0371957 0.0496106,0.107514 0,0.0661966 -0.0124149,0.177833 -0.0330737,0.335007 -0.0206588,0.157174 -0.0413667,0.376373 -0.0661966,0.66172 -0.0247808,0.281225 -0.0496106,0.641061 -0.0785624,1.08358 -0.0289518,0.438399 -0.0496106,0.976019 -0.0661475,1.60467 0,0.363958 0.0206588,0.698965 0.0661475,1.00497 0.0454887,0.306055 0.111685,0.574865 0.19437,0.802357 0.0868554,0.223321 0.186126,0.401154 0.310177,0.525254 0.119978,0.124051 0.252322,0.186077 0.397081,0.186077 0.140588,0 0.26881,-0.0661475 0.388739,-0.198492 0.119929,-0.132344 0.244029,-0.31847 0.363958,-0.558328 0.119929,-0.235736 0.248151,-0.521132 0.376324,-0.847846 0.128222,-0.326714 0.264688,-0.678257 0.409447,-1.05875 0.0827334,-0.202663 0.19437,-0.301884 0.3433,-0.301884z"/>
  <path class="fil1" d="M56.2056 19.686c0,-0.823016 0.0207079,-1.60467 0.0703185,-2.345 0.0496597,-0.740283 0.103392,-1.45991 0.165418,-2.15887 0.0579036,-0.698916 0.115807,-1.38134 0.169589,-2.04719 0.0496106,-0.665842 0.0785624,-1.33586 0.0785624,-2.01823 0,-0.603817 -0.0371957,-1.17873 -0.111636,-1.72464 -0.0703185,-0.545913 -0.198541,-1.02568 -0.384617,-1.43508 -0.186126,-0.413618 -0.446692,-0.740332 -0.777527,-0.988483 -0.330885,-0.24398 -0.752747,-0.36808 -1.26142,-0.36808 -0.483888,0 -0.922286,0.1241 -1.31932,0.376373 -0.397032,0.248151 -0.748576,0.583158 -1.05875,1.00497 -0.310177,0.41774 -0.583158,0.901628 -0.814772,1.45166 -0.227443,0.550084 -0.421813,1.12495 -0.574865,1.72047 -0.153003,0.599695 -0.26881,1.19939 -0.351544,1.79908 -0.0785624,0.603817 -0.124051,1.16627 -0.132344,1.69152 -0.0082439,0.405276 -0.0165369,0.785771 -0.0247808,1.14973 -0.00829297,0.363958 -0.0207079,0.715502 -0.0372448,1.05463 -0.0289518,1.58401 -0.111636,2.84542 -0.239858,3.78007 -0.128222,0.938823 -0.244029,1.59642 -0.339129,1.97692 -0.0579036,0.219199 -0.148881,0.36808 -0.272981,0.446643 -0.124051,0.0827334 -0.264688,0.128222 -0.413569,0.144759 -0.148881,0.0165369 -0.297762,0.0248298 -0.446643,0.0206588 -0.14893,-0.00412195 -0.277103,0.0165369 -0.380495,0.0661966 -0.148881,0.0661475 -0.29364,0.0950993 -0.438399,0.0950993 -0.136466,0 -0.252273,-0.0330737 -0.351544,-0.103392 -0.0951484,-0.0661475 -0.144759,-0.181955 -0.144759,-0.343251 0,-0.0579036 0.00412195,-0.103392 0.0124149,-0.144759 0.0248298,-0.0909773 0.0620255,-0.285347 0.115807,-0.58728 0.0496106,-0.306055 0.111636,-0.669964 0.181955,-1.10424 0.0661966,-0.430106 0.140637,-0.909872 0.215078,-1.43513 0.0785624,-0.525205 0.148881,-1.05463 0.206785,-1.59225 0.0620255,-0.537669 0.111685,-1.06287 0.153003,-1.57159 0.0413667,-0.508717 0.0620746,-0.967775 0.0620746,-1.38134 0,-0.215078 -0.00417102,-0.541791 -0.00829297,-0.967775 -0.00412195,-0.430106 -0.00829297,-0.922286 -0.0165369,-1.48474 -0.00829297,-0.56245 -0.0248298,-1.16627 -0.0454887,-1.81145 -0.0165369,-0.645183 -0.0496597,-1.29037 -0.0909773,-1.93143 -0.0372448,-0.645183 -0.0868554,-1.26554 -0.144759,-1.86523 -0.0537816,-0.603817 -0.1241,-1.14144 -0.202663,-1.6212 -0.0165369,-0.0785624 0.0248298,-0.165418 0.132344,-0.252273 0.103392,-0.0909773 0.202663,-0.177833 0.289518,-0.268859 0.0579036,-0.0537326 0.103392,-0.115758 0.140588,-0.177833 0.0372448,-0.0661475 0.0661966,-0.124051 0.0909773,-0.177833 0.0248298,-0.0537326 0.0496597,-0.0950993 0.0786115,-0.132344 0.0289518,-0.0371957 0.0620255,-0.0620255 0.103392,-0.0785624 0.144759,-0.0496106 0.252273,-0.0827334 0.318421,-0.0992703 0.0703185,-0.0165369 0.1241,-0.0289518 0.165467,-0.0413667 0.0413667,-0.0124149 0.0744405,-0.0247808 0.107514,-0.0371957 0.0330737,-0.0124149 0.0868554,-0.0330737 0.157174,-0.0661966 0.0661475,-0.0330737 0.128173,-0.0579036 0.181955,-0.0826844 0.0579036,-0.0248298 0.107514,-0.0372448 0.144759,-0.0372448 0.227443,0 0.339129,0.231614 0.339129,0.690672 0.0165369,0.355665 0.0413667,0.756869 0.0744405,1.19939 0.0248298,0.388739 0.0496597,0.851968 0.0785624,1.38547 0.0289518,0.537669 0.0537816,1.14973 0.0786115,1.83628 0.289518,-0.740283 0.616232,-1.36893 0.976019,-1.88177 0.359836,-0.512839 0.727917,-0.934701 1.10424,-1.26554 0.372251,-0.335007 0.740332,-0.58728 1.10012,-0.765113 0.359836,-0.177833 0.678257,-0.310177 0.959531,-0.39291 0.277054,-0.0868554 0.500424,-0.132344 0.669964,-0.144759 0.169589,-0.0124149 0.260566,-0.0206588 0.268859,-0.0206588 0.595524,0 1.11666,0.0826844 1.5633,0.248151 0.442521,0.165418 0.823016,0.392861 1.14149,0.678257 0.322592,0.289518 0.583109,0.624476 0.789893,1.01326 0.206785,0.388739 0.36808,0.802308 0.483888,1.249 0.115807,0.442521 0.198541,0.905701 0.248151,1.39376 0.0496597,0.483888 0.0744405,0.963604 0.0744405,1.43925 0,0.475595 -0.0165369,0.934652 -0.0496106,1.37717 -0.0330737,0.438399 -0.0703185,0.847846 -0.107514,1.22834 -0.0579036,0.533498 -0.111685,1.04222 -0.161296,1.5261 -0.0455377,0.483888 -0.0868554,0.963604 -0.1241,1.43095 -0.0371957,0.467351 -0.0661475,0.934701 -0.0909773,1.39788 -0.0248298,0.467351 -0.0372448,0.942994 -0.0372448,1.43925 0,1.03809 0.0496597,1.98104 0.144759,2.81647 0.0992703,0.835431 0.260566,1.59225 0.483888,2.27056 0.227492,0.678257 0.529376,1.2862 0.90575,1.82387 0.372202,0.53762 0.839553,1.02151 1.39788,1.45991 0.0868554,0.0744405 0.157174,0.132344 0.206785,0.173711 0.0454887,0.0454887 0.0703185,0.0992703 0.0703185,0.165418 0,0.103392 -0.0703185,0.157174 -0.215078,0.157174 -0.0826844,0 -0.16954,-0.0165369 -0.26881,-0.0496597 -0.558328,-0.206785 -1.13319,-0.516961 -1.73289,-0.926408 -0.595573,-0.405276 -1.14149,-0.938774 -1.63362,-1.59225 -0.492181,-0.653427 -0.901628,-1.44749 -1.22005,-2.37395 -0.31847,-0.93053 -0.475644,-2.02648 -0.475644,-3.28377z"/>
  <path class="fil1" d="M62.7816 21.0301c0.19437,0 0.363958,-0.0661475 0.508717,-0.19437 0.14471,-0.128222 0.26881,-0.297762 0.372202,-0.508668 0.0992703,-0.210956 0.181955,-0.454936 0.248151,-0.732039 0.0620255,-0.281225 0.111636,-0.566621 0.144759,-0.868505 -0.235736,-0.161296 -0.463229,-0.372251 -0.68655,-0.628647 -0.219199,-0.260566 -0.421862,-0.574865 -0.599695,-0.947116 -0.103392,-0.215028 -0.181955,-0.43835 -0.227443,-0.669964 -0.0496597,-0.231614 -0.0744405,-0.450814 -0.0744405,-0.66172 0,-0.264688 0.0371957,-0.516961 0.107514,-0.748576 0.0744405,-0.235736 0.181955,-0.438399 0.322592,-0.607988 0.140588,-0.16954 0.31847,-0.306006 0.525254,-0.405276 0.210906,-0.0992703 0.454936,-0.153052 0.727868,-0.153052 0.347422,0 0.632769,0.0827334 0.85609,0.248151 0.219199,0.165467 0.397032,0.376373 0.525254,0.632769 0.128222,0.252322 0.219199,0.529376 0.272981,0.827187 0.0537326,0.301884 0.0785624,0.578987 0.0785624,0.839553 0,0.339129 -0.0206588,0.68655 -0.0661475,1.04222 -0.0455377,0.351544 -0.115807,0.711331 -0.210956,1.07529 0.297762,-0.0248298 0.566621,-0.107514 0.798235,-0.248151 0.235736,-0.140637 0.434228,-0.380495 0.595524,-0.719624 0.0951484,-0.202663 0.198541,-0.301884 0.301933,-0.301884 0.0579036,0 0.107514,0.0165369 0.153003,0.0454887 0.0413667,0.0330737 0.0661966,0.0868554 0.0661966,0.157125 0,0.0579036 -0.0124149,0.115807 -0.0372448,0.169589 -0.161296,0.46318 -0.430106,0.827138 -0.806479,1.09183 -0.376324,0.26881 -0.794064,0.401154 -1.25312,0.401154 -0.136466,0.397081 -0.306055,0.769284 -0.504546,1.12083 -0.198541,0.351544 -0.430155,0.657598 -0.694843,0.926408 -0.26881,0.264688 -0.570743,0.475595 -0.909872,0.628647 -0.339129,0.153003 -0.715453,0.231565 -1.1249,0.231565 -0.219199,0 -0.467351,-0.0330737 -0.740332,-0.0950993 -0.272932,-0.0661966 -0.533498,-0.202663 -0.777527,-0.409447 -0.239858,-0.202663 -0.446643,-0.496303 -0.612061,-0.872627 -0.165467,-0.372251 -0.248151,-0.872676 -0.248151,-1.49303 0,-0.508717 0.0950993,-1.04634 0.285347,-1.61296 0.190248,-0.566572 0.508717,-1.12907 0.951238,-1.68323 0.169589,-0.210956 0.326714,-0.359836 0.467351,-0.450814 0.140588,-0.0868554 0.256395,-0.132344 0.347372,-0.132344 0.173711,0 0.264688,0.107514 0.264688,0.326714 0,0.0992703 -0.0330737,0.219199 -0.0950993,0.363958 -0.0661475,0.144759 -0.136466,0.330885 -0.206785,0.558328 -0.0744405,0.227443 -0.140637,0.492131 -0.206785,0.806479 -0.0661966,0.310177 -0.0992703,0.674135 -0.0992703,1.09595 0,0.806479 0.115807,1.43513 0.347422,1.88182 0.231614,0.450765 0.533498,0.674086 0.913994,0.674086zm1.3441 -3.56087c0,-0.827138 -0.0744405,-1.41854 -0.227443,-1.77838 -0.153003,-0.355665 -0.322592,-0.500424 -0.508717,-0.430106 -0.0826844,0.0330737 -0.128173,0.107514 -0.140588,0.219199 -0.0124149,0.115807 -0.0165369,0.223321 -0.0165369,0.326714 0,0.177833 0.0206588,0.363958 0.0702694,0.558328 0.0496597,0.19437 0.111685,0.388739 0.190248,0.583158 0.0744405,0.19437 0.169589,0.376324 0.277103,0.550035 0.107563,0.173711 0.223321,0.335007 0.3433,0.479766 0.0082439,-0.0909773 0.0123659,-0.173711 0.0123659,-0.256444 0,-0.0785624 0,-0.165418 0,-0.252273z"/>
  <path class="fil1" d="M74.4858 17.6719c-0.161296,0.471473 -0.405325,0.835431 -0.727917,1.10012 -0.322543,0.260517 -0.690672,0.392861 -1.10007,0.392861 -0.210956,0 -0.413618,-0.0289027 -0.607988,-0.0868063 -0.202663,0.454936 -0.434228,0.864334 -0.703087,1.23659 -0.264688,0.372202 -0.541742,0.694794 -0.827138,0.963604 -0.289518,0.268859 -0.574865,0.479766 -0.85609,0.628647 -0.281225,0.153052 -0.545913,0.227492 -0.78582,0.227492 -0.115807,0 -0.206785,-0.0331228 -0.281225,-0.0910264 -0.0703185,-0.0620255 -0.153003,-0.153003 -0.239858,-0.272932 -0.0992703,-0.144759 -0.219199,-0.351544 -0.363958,-0.620354 -0.144759,-0.264688 -0.285347,-0.599695 -0.417691,-0.996727 -0.132344,-0.401203 -0.248151,-0.872676 -0.339129,-1.41859 -0.0951484,-0.545913 -0.140637,-1.17039 -0.140637,-1.87348 0,-0.330885 0.0165369,-0.607988 0.0537816,-0.831309 0.0371957,-0.219199 0.0785624,-0.405276 0.128173,-0.550035 0.0496597,-0.144759 0.0992703,-0.260566 0.157174,-0.3433 0.0579036,-0.0868554 0.107514,-0.153003 0.157174,-0.202614 0.0496106,-0.0455377 0.0950993,-0.0910264 0.132344,-0.1241 0.0413667,-0.0371957 0.0785624,-0.0579036 0.111636,-0.0579036 0.0454887,0 0.0910264,0.0248298 0.132344,0.0703185 0.0413667,0.0413667 0.0786115,0.0661475 0.119978,0.0661475 0.0330737,0 0.0826844,-0.0206588 0.14471,-0.0620255 0.0661966,-0.0413667 0.132344,-0.0868554 0.202663,-0.132344 0.0661966,-0.0496106 0.136466,-0.0950993 0.206785,-0.132344 0.0661966,-0.0413667 0.119929,-0.0620255 0.161296,-0.0620255 0.0413667,0 0.0786115,0.0206588 0.115807,0.0661475 0.0372448,0.0455377 0.0537816,0.1241 0.0537816,0.235785 0,0.111636 -0.00829297,0.215028 -0.0248298,0.310177 -0.0165369,0.0909773 -0.0330737,0.206785 -0.0537816,0.339129 -0.0206588,0.132344 -0.0371957,0.297762 -0.0537326,0.492131 -0.0165369,0.190248 -0.0248298,0.442521 -0.0248298,0.748576 0,0.90575 0.0909773,1.74942 0.277103,2.53107 0.186126,0.78582 0.446643,1.42688 0.777527,1.92731 0.0785624,-0.111685 0.16954,-0.248151 0.272932,-0.405325 0.0992703,-0.157174 0.202663,-0.343251 0.301933,-0.56245 0.0992703,-0.219199 0.19437,-0.475644 0.277103,-0.769284 0.0868554,-0.29364 0.161296,-0.63689 0.227443,-1.02563 -0.148881,-0.153052 -0.289469,-0.330885 -0.430106,-0.537669 -0.144759,-0.206785 -0.272932,-0.438399 -0.397032,-0.698965 -0.103392,-0.215028 -0.181955,-0.43835 -0.227443,-0.669964 -0.0496597,-0.231614 -0.0744405,-0.450814 -0.0744405,-0.66172 0,-0.248151 0.0330737,-0.48801 0.103392,-0.715502 0.0702694,-0.223321 0.161296,-0.421862 0.277054,-0.58728 0.119978,-0.165418 0.256444,-0.297762 0.421862,-0.39291 0.161296,-0.0950993 0.335007,-0.144759 0.521132,-0.144759 0.442521,0 0.810601,0.198541 1.10836,0.599695 0.29364,0.401203 0.442521,0.959531 0.442521,1.67916 0,0.401154 -0.0413667,0.798186 -0.115807,1.17868 -0.0785624,0.384617 -0.181955,0.75682 -0.310177,1.12078 0.144759,0.0413667 0.281225,0.0620255 0.413569,0.0620255 0.289518,0 0.550084,-0.0868554 0.78582,-0.256395 0.235736,-0.169589 0.417691,-0.421862 0.545913,-0.760991 0.0703185,-0.202663 0.173711,-0.301884 0.301884,-0.301884 0.0496597,0 0.0951484,0.0165369 0.140637,0.0454887 0.0454887,0.0330737 0.0661966,0.0826844 0.0661966,0.148881 0,0.0454887 -0.0124149,0.107514 -0.0372448,0.177833zm-4.0241 -1.8404c0,0.26881 0.0537816,0.550035 0.153052,0.85609 0.0992212,0.301884 0.24398,0.58728 0.430106,0.851968 0.0165369,-0.161296 0.0289518,-0.330885 0.0371957,-0.512839 0.00829297,-0.181955 0.0124149,-0.376373 0.0124149,-0.574865 0,-0.405325 -0.0247808,-0.744454 -0.0744405,-1.01326 -0.0454887,-0.26881 -0.136466,-0.401154 -0.264688,-0.39291 -0.0661475,0 -0.119929,0.0248298 -0.157174,0.0785624 -0.0413176,0.0496597 -0.0702694,0.119978 -0.0909773,0.198541 -0.0206588,0.0827334 -0.0330737,0.165418 -0.0371957,0.256395 -0.00417102,0.0868554 -0.00829297,0.173711 -0.00829297,0.252322z"/>
  <path class="fil1" d="M80.0443 17.2997c0.0496106,0 0.0909773,0.0165369 0.128222,0.0454887 0.0371957,0.0330737 0.0537326,0.0826844 0.0537326,0.148881 0,0.0620255 -0.0124149,0.124051 -0.0330737,0.177833 -0.1241,0.339129 -0.252273,0.66172 -0.397032,0.959482 -0.140637,0.297762 -0.26881,0.566621 -0.39291,0.798235 -0.144759,0.26881 -0.285347,0.516961 -0.421862,0.752698 -0.16954,0.264688 -0.359787,0.516961 -0.566572,0.75682 -0.202663,0.239907 -0.430106,0.446692 -0.670013,0.628647 -0.24398,0.181955 -0.504546,0.326714 -0.789893,0.430106 -0.281274,0.107563 -0.579036,0.157174 -0.893335,0.157174 -0.235736,0 -0.492181,-0.0372448 -0.769284,-0.119929 -0.281225,-0.0785624 -0.53762,-0.231614 -0.777527,-0.446692 -0.239858,-0.21915 -0.434228,-0.516961 -0.591402,-0.897457 -0.161296,-0.380495 -0.239858,-0.868505 -0.239858,-1.4682 0,-0.272932 0.0289518,-0.550035 0.0785624,-0.835382 0.0537816,-0.281274 0.128222,-0.550084 0.219199,-0.81065 0.0951484,-0.256395 0.198541,-0.500424 0.314348,-0.727868 0.119929,-0.223321 0.235736,-0.421862 0.359787,-0.591402 0.210906,-0.29364 0.430106,-0.566621 0.665842,-0.818894 0.235736,-0.256444 0.471473,-0.475644 0.707209,-0.665842 0.239907,-0.190248 0.471522,-0.339178 0.698965,-0.44257 0.223321,-0.107514 0.434277,-0.157125 0.628647,-0.157125 0.306055,0 0.574865,0.115807 0.806479,0.351544 0.231565,0.231565 0.343251,0.566572 0.343251,1.00497 0,0.380495 -0.0950993,0.773406 -0.289518,1.18285 -0.19437,0.405276 -0.434228,0.802308 -0.727868,1.1911 -0.289518,0.388739 -0.599695,0.748576 -0.930579,1.07941 -0.330836,0.330885 -0.63689,0.603817 -0.909822,0.823016 0.14471,0.363958 0.330836,0.628647 0.558328,0.798186 0.223321,0.169589 0.454936,0.256444 0.690672,0.256444 0.363909,0 0.686501,-0.115807 0.976019,-0.351544 0.285347,-0.235736 0.541791,-0.521083 0.773406,-0.860261 0.231565,-0.339129 0.434228,-0.694794 0.607939,-1.067 0.173711,-0.372251 0.326714,-0.698965 0.463229,-0.98019 0.0496106,-0.0992703 0.0992212,-0.173711 0.148881,-0.223321 0.0454887,-0.0537816 0.107514,-0.0785624 0.177833,-0.0785624zm-4.71065 0.578987c0,0.479766 0.0372448,0.897457 0.107514,1.26142 0.161296,-0.161296 0.326763,-0.347422 0.492181,-0.550084 0.165418,-0.206785 0.314299,-0.417691 0.446643,-0.63689 0.132344,-0.219199 0.244029,-0.442521 0.326763,-0.665842 0.0868554,-0.227492 0.128173,-0.446692 0.128173,-0.653476 0,-0.326714 -0.0661475,-0.574865 -0.206785,-0.752698 -0.136466,-0.177833 -0.272932,-0.26881 -0.409447,-0.26881 -0.0826844,0 -0.173662,0.0537326 -0.272932,0.153003 -0.103392,0.0992703 -0.198541,0.248151 -0.29364,0.442521 -0.0909773,0.19437 -0.169589,0.430106 -0.227492,0.707209 -0.0620255,0.281225 -0.0909773,0.599695 -0.0909773,0.963653z"/>
 
</svg>
