<?xml version="1.0" encoding="UTF-8"?>
<!DOCTYPE svg PUBLIC "-//W3C//DTD SVG 1.1//EN" "http://www.w3.org/Graphics/SVG/1.1/DTD/svg11.dtd">
<!-- Creator: CorelDRAW -->
<svg xmlns="http://www.w3.org/2000/svg" xml:space="preserve" width="97.0804mm" height="35.9388mm" style="shape-rendering:geometricPrecision; text-rendering:geometricPrecision; image-rendering:optimizeQuality; fill-rule:evenodd; clip-rule:evenodd"
viewBox="0 0 1603.81 593.723"
 xmlns:xlink="http://www.w3.org/1999/xlink">
 <defs>
  <style type="text/css">
   <![CDATA[
    .fil0 {fill:white}
    .fil1 {fill:white;fill-rule:nonzero}
   ]]>
  </style>
 </defs>
 <g id="Warstwa_x0020_2">
  <metadata id="CorelCorpID_0Corel-Layer"/>
  <path class="fil0" d="M0 593.723c0,0 64.4097,-90.3797 193.227,-46.7477 89.0003,30.1447 164.728,14.2736 224.596,-28.0153l-0.868972 -1.27537 -1.0507 -1.581 -1.03583 -1.59422 -1.0094 -1.59422 -1.00444 -1.62065 -0.991223 -1.64213 -0.974703 -1.65039 -0.954878 -1.65865 -0.949922 -1.68673 -0.933402 -1.7016 -0.915229 -1.70821 -0.898709 -1.72142 -0.885493 -1.73299 -0.87558 -1.75942 -0.868972 -1.78585 -0.840888 -1.7809 -0.829323 -1.79081 -0.819411 -1.82055 -0.806195 -1.83376 -0.788022 -1.84037 -0.774806 -1.85194 -0.763242 -1.87011 -0.751678 -1.89158 -0.736809 -1.90645 -0.721941 -1.91306 -0.708725 -1.92958 -0.69716 -1.95106 -0.692204 -1.98905 -0.695508 -2.0634 -0.685596 -2.12452 -0.662468 -2.14765 -0.634383 -2.1493 -0.612906 -2.17078 -0.589778 -2.19556 -0.564997 -2.20878 -0.536913 -2.20712 -0.517088 -2.23025 -0.358492 -1.63882c-47.2962,37.7425 -103.727,47.7984 -162.746,38.509l-2.3872 1.32494 -2.46484 1.18947 -2.50614 1.04409 -2.51936 0.888797 -2.5111 0.743417 -2.48962 0.59969 -2.34755 0.451007 -2.00227 0.302323 -1.71647 0.226329 -1.69169 0.188332 -1.71316 0.1619 -1.7462 0.125555 -1.73629 0.0892101 -1.75612 0.0545173 -0.411358 0.00330408 -0.721941 0.26763 -2.27981 0.731853 -2.33929 0.632731 -2.3905 0.536913 -2.46649 0.427878 -2.50449 0.313887 -2.52762 0.18668 -2.64326 0.0710377 -2.80186 -0.0892101 -2.92741 -0.272586 -2.98523 -0.49396 -3.00671 -0.715333 -3.00506 -0.964791 -2.94063 -1.19773 -2.7969 -1.40588 -3.66918 -2.20052 -4.03097 -3.37511 -3.33216 -3.69726 -2.74899 -4.05575 -2.09644 -4.216 -1.47031 -4.17305 -0.935054 -4.03758 -0.49396 -3.84925 -0.084254 -2.16252c-7.53495,-3.28425 -15.0583,-6.78988 -22.5619,-10.5433 -59.6849,28.0599 -95.6233,78.1679 -115.312,143.361zm564.226 -326.582c4.59928,-24.1726 7.36644,-48.4807 8.1842,-72.3378 5.19401,-151.674 7.27227,-128.819 31.1657,-186.994 -161.465,-17.1366 -301.677,-7.40609 -404.88,41.8048l0.295715 1.15147 0.541869 2.74734 0.379969 2.64326 0.25111 2.56396 0.135467 2.49623 0.041301 2.20547 -0.00330408 0.774806 0 0.588126 -0.00495612 0.636035 -0.00660815 0.702116 -0.0132163 0.814455 -0.0214765 0.845844 -0.0280847 0.87558 -0.0528652 1.27207 -0.0115643 0.422922 -0.0115643 0.489003 -0.00495612 0.584822 -0.00660815 0.660815 -0.00165204 0.713681 0 0.817759 0 0.8508 0 0.657511 0.00495612 0.626123 0.00826019 0.637687 0.0132163 0.682292 0.0148683 0.692204 0.0198245 0.703768 0.0231285 0.700464 0.0313887 0.743417 0.0363449 0.816107 0.0379969 0.783066 0.044605 0.779762 0.0528652 0.837584 0.0561693 0.86732 0.0611254 0.852452 0.0693856 0.880537 0.0743417 0.87558 0.0693856 0.754982 0.0776458 0.746721 0.0925142 0.794631 0.107383 0.839236 0.118947 0.862364 0.0693856 0.462571c118.246,-61.9085 256.494,-49.9477 316.093,-39.6258 -2.00392,70.438 -8.73763,130.901 -19.3801,182.441l-0.00165204 0.00991223 -0.102426 1.61735 -0.110687 1.61404 -0.115643 1.60413 -0.122251 1.61569 -0.138771 1.76933 -0.156944 1.71316 -0.138771 1.53309 -0.138771 1.52648 -0.138771 1.54796 -0.142075 1.5777 -0.142075 1.57604 -0.142075 1.56118 -0.142075 1.58761 -0.147031 1.60413 -0.145379 1.59752 -0.148683 1.60909 -0.148683 1.62065 -0.151988 1.62561 -0.150336 1.62065 -0.151988 1.62395 -0.0611254 0.640991 3.71378 -1.03418 5.14445 -0.490655 2.90594 0.158596 0.525348 -0.277542 0.6889 -0.350232 0.809499 -0.417966 1.25555 -0.606298 1.39928 -0.629427 1.60083 -0.642643 1.97253 -0.692204 2.5144 -0.692204 3.21652 -0.606298 4.80908 -0.333712 7.58451 0.911925 8.41548 3.53701 6.91378 5.68467 4.51998 6.37357 0.143727 0.333712 1.5777 -1.79246 2.25834 -2.2666 2.3492 -2.1047 2.46154 -1.95932 2.31285 -1.64047zm-446.425 -163.687c-64.1288,58.7994 -101.612,145.241 -104.295,265.877 18.3955,-101.063 58.3236,-171.809 108.475,-220.917l-0.404749 -1.92297 -0.384925 -1.93123 -0.363449 -1.94445 -0.338668 -1.93949 -0.317191 -1.93454 -0.305627 -2.02375 -0.25937 -1.92628 -0.226329 -1.79081 -0.216417 -1.80568 -0.196593 -1.78255 -0.18668 -1.77925 -0.171812 -1.79246 -0.158596 -1.78751 -0.140423 -1.7842 -0.127207 -1.78255 -0.113991 -1.79246 -0.0958182 -1.79742 -0.0776458 -1.77429 -0.0644295 -1.78916 -0.044605 -1.80237 -0.0280847 -1.78751 -0.00826019 -1.75777 0.00826019 -1.77759 0.0214765 -1.76438 0.0214765 -0.989571z"/>
  <path class="fil1" d="M424.318 157.33c8.84667,0 16.2048,1.40588 21.9093,4.2986 5.70449,2.81177 10.2526,6.86257 13.6425,12.0714 3.47093,5.29148 5.78709,11.4932 7.02612,18.7688 1.32328,7.27558 1.98575,15.2946 1.98575,23.976 0,7.27558 -0.414662,14.9642 -1.07548,23.15 -0.743417,8.18585 -1.48849,16.6179 -2.31451,25.2993 -2.15095,20.0078 -3.88725,39.7679 -5.20888,59.1149 -1.40588,19.347 -2.0667,38.3636 -2.0667,56.883 0,20.8355 0.991223,39.6027 3.05792,56.3874 1.9841,16.7005 5.29148,31.8315 9.92214,45.3898 4.54641,13.5599 10.6656,25.714 18.2715,36.4621 7.60599,10.7482 16.9499,20.4208 28.1111,29.1849 1.73629,1.40588 3.14218,2.64657 4.1334,3.47259 0.910273,0.908621 1.40588,1.9841 1.40588,3.30738 0,2.0667 -1.40588,3.14218 -4.38121,3.14218 -1.57109,0 -3.38998,-0.33206 -5.29148,-0.992875 -11.1628,-4.216 -22.6544,-10.3352 -34.6433,-18.3541 -11.9888,-8.10325 -22.8196,-18.6036 -32.7401,-31.5011 -9.83954,-12.9801 -17.9411,-28.6067 -24.3081,-47.1261 -6.3653,-18.521 -9.59008,-40.3477 -9.59008,-65.5645 0,-17.1151 0.578214,-34.0634 1.73629,-50.8481 1.15643,-16.7831 2.39711,-32.6575 3.72039,-47.5391 1.40588,-14.9658 2.64491,-28.6893 3.80299,-41.2564 1.07548,-12.4845 1.65369,-23.15 1.65369,-32.0793 0,-4.79587 -0.41301,-8.59886 -1.15808,-11.328 -0.826019,-2.81012 -1.81889,-4.87682 -3.05792,-6.2001 -1.24068,-1.40588 -2.64657,-2.2319 -4.21765,-2.56396 -1.65369,-0.330408 -3.14218,-0.495612 -4.62901,-0.495612 -1.9015,0 -3.88725,0.662468 -5.78874,1.9841 -1.9841,1.24068 -3.88559,3.72039 -5.86969,7.27558 -1.9015,3.55519 -3.80299,8.35106 -5.62189,14.386 -1.9015,6.03655 -3.63779,13.8903 -5.20888,23.6473 -1.15808,5.9523 -2.39711,13.1453 -3.80299,21.4963 -1.32328,8.43201 -2.89437,17.3613 -4.63066,26.8704 -1.65369,9.59008 -3.38998,19.2644 -5.04367,29.2675 -1.73629,9.92214 -3.30573,19.2644 -4.87682,28.1937 -1.48849,8.84667 -2.97697,16.8657 -4.30026,24.0586 -1.40588,7.19463 -2.56231,12.8165 -3.55519,16.8673 -4.0508,17.1151 -9.25968,29.5996 -15.625,37.536 -6.36696,7.93639 -14.3876,11.9062 -24.0603,11.9062 -7.11037,0 -12.7323,-1.65369 -16.8657,-4.87847 -4.13505,-3.22478 -7.19298,-7.27558 -9.34393,-12.0714 -2.0667,-4.87847 -3.38998,-10.17 -3.88559,-15.8744 -0.495612,-5.78709 -0.660815,-11.1612 -0.660815,-16.1222 0,-32.4923 0.330408,-64.3238 1.15643,-95.4102 0.827671,-31.1707 1.24068,-62.4223 1.24068,-93.7582 0,-11.6568 -0.330408,-22.0745 -0.991223,-31.2516 -0.662468,-9.26133 -1.98575,-17.0325 -4.13505,-23.3978 -2.0667,-6.36696 -4.95942,-11.328 -8.68146,-14.8006 -3.72039,-3.47259 -8.59721,-5.20888 -14.5512,-5.20888 -5.62189,0 -10.5004,3.30738 -14.6338,9.83954 -4.1334,6.53216 -7.52338,15.4614 -10.3352,26.7878 -2.72752,11.2438 -4.79422,24.6385 -6.2827,39.9331 -1.40588,15.3788 -2.39876,31.8315 -2.89437,49.4422 -0.330408,12.0714 -0.578214,24.4733 -0.826019,37.0404 -0.247806,12.5671 -0.662468,24.8037 -1.07548,36.7083 -0.495612,11.8236 -1.15808,23.0674 -1.9841,33.6504 -0.827671,10.583 -1.73629,20.0904 -2.89437,28.4415 -1.15643,14.5512 -2.47971,26.54 -3.9682,35.9649 -1.57109,9.50913 -2.89437,16.6195 -4.0508,21.4963 -0.910273,4.13505 -2.64657,7.11037 -5.04367,8.68146 -2.47971,1.65369 -5.12628,2.64657 -8.10325,3.14218 -3.05792,0.495612 -6.0349,0.743417 -9.09447,0.743417 -3.05792,0 -5.78709,0.497264 -8.019,1.48849 -2.72917,1.07548 -5.53929,1.65369 -8.43366,1.65369 -2.81012,0 -5.04367,-0.660815 -6.94517,-1.9015 -1.81889,-1.32328 -2.81012,-3.55519 -2.81012,-6.77997 0,-1.15643 0.0826019,-2.1493 0.247806,-2.89272 0.330408,-1.98575 0.991223,-6.20175 2.0667,-12.6497 1.07548,-6.44956 2.31451,-14.2207 3.63779,-23.3995 1.40588,-9.09447 2.81177,-19.0976 4.216,-30.0935 1.48849,-10.9976 2.81177,-22.0762 3.88725,-33.2374 1.15643,-11.0786 2.1493,-21.9093 2.89272,-32.4097 0.827671,-10.5004 1.24068,-19.8426 1.24068,-27.8633 0,-13.3931 -0.41301,-25.2167 -1.32328,-35.4693 -0.908621,-10.2509 -2.0667,-19.4296 -3.55519,-27.366 -1.40588,-8.02065 -3.14218,-15.2136 -5.12628,-21.5789 -2.0667,-6.36696 -4.216,-12.4845 -6.44791,-18.1889 -2.23356,-5.70614 -4.54806,-11.4932 -6.94517,-17.1977 -2.31616,-5.70449 -4.63066,-11.9888 -6.86257,-18.7688 -2.89437,-8.67981 -4.96107,-17.2787 -6.20175,-25.7949 -1.15643,-8.43366 -1.81889,-16.7005 -1.81889,-24.5559 0,-8.1016 0.579866,-15.625 1.57109,-22.6528 1.07548,-7.02777 2.48136,-13.1469 4.13505,-18.2732 1.73629,-5.20888 3.55519,-9.25968 5.45668,-12.2367 1.9015,-3.05792 3.80299,-4.54641 5.53929,-4.54641 2.1493,0 3.72039,1.32328 4.87847,3.88559 1.15643,2.64657 1.65204,5.78709 1.65204,9.50748 0,1.24068 0,2.81177 -0.0826019,4.54806 -0.0826019,1.81889 -0.0826019,3.88559 -0.0826019,6.2827 0,4.05245 0.165204,8.92927 0.662468,14.718 0.495612,5.70449 1.65369,12.3193 3.38998,19.8426 1.81889,7.52338 4.38121,15.8744 7.77119,25.0515 3.38998,9.17707 8.019,19.2644 13.8077,30.2604 2.56231,4.87847 4.95942,9.67269 7.02777,14.4686 2.0667,4.71327 4.0508,9.42488 5.78709,14.1381 2.89437,-14.7164 6.77997,-27.366 11.4916,-38.0316 4.79587,-10.6656 9.92214,-19.6774 15.4614,-27.1199 5.45668,-7.44078 11.0786,-13.4757 16.9483,-18.1889 5.78874,-4.62901 11.328,-8.2668 16.7021,-10.7482 5.29148,-2.47971 10.0873,-4.216 14.3034,-5.12628 4.1334,-0.826019 7.44078,-1.32163 9.92049,-1.32163 6.77997,0 12.5671,1.9015 17.4455,5.62189 4.79587,3.63779 9.01187,8.84667 12.4845,15.3772 3.47259,6.53216 6.28436,14.1381 8.43366,22.9848 2.1493,8.76407 3.88559,18.2715 5.12628,28.3589 1.15643,10.0873 1.9841,20.5877 2.39711,31.5011 0.41301,10.8308 0.578214,21.6615 0.578214,32.3271 0,22.0745 -0.330408,41.1738 -1.07383,57.296 -0.745069,16.0396 -1.57109,30.0126 -2.39711,41.8346 -0.910273,11.9062 -1.73629,22.0762 -2.48136,30.5925 -0.660815,8.43201 -1.07383,16.1222 -1.07383,23.0658 0,1.82055 0.41301,3.14218 1.07383,4.13505 0.745069,0.991223 1.57109,1.48849 2.56396,1.48849 1.65369,0 2.97532,-0.745069 4.1334,-2.23356 1.15808,-1.40423 2.31451,-4.62901 3.47259,-9.50748 1.24068,-4.96107 2.64491,-12.154 4.1334,-21.7441 1.57109,-9.50748 3.63779,-22.324 6.20175,-38.4462 2.0667,-13.4757 4.0508,-26.6226 5.78709,-39.5201 1.81889,-12.8975 3.80299,-25.2167 5.9523,-36.9578 2.1493,-11.6568 4.71327,-22.4876 7.60599,-32.4097 2.97697,-9.92049 6.61476,-18.5194 11.0802,-25.7123 4.38121,-7.19298 9.75529,-12.8149 16.1222,-16.9499 6.2827,-4.1334 13.8903,-6.2001 22.9848,-6.2001z"/>
  <path class="fil1" d="M649.948 353.279c-5.20888,14.386 -9.83954,27.0356 -13.9729,37.949 -4.1334,10.9134 -8.26845,20.0078 -12.4845,27.366 -4.21765,7.35818 -8.76407,12.8991 -13.6425,16.6195 -4.96107,3.72039 -10.7482,5.53929 -17.3629,5.53929 -5.62189,0 -10.4161,-1.65369 -14.3034,-4.96107 -3.88559,-3.30738 -6.94352,-7.52338 -9.17707,-12.5671 -2.2319,-5.12628 -3.88559,-10.7482 -4.87682,-16.8673 -0.910273,-6.1175 -1.40588,-11.9872 -1.40588,-17.6917 0,-4.21765 0,-8.18585 0,-12.0714 0,-3.88559 0.165204,-7.52338 0.495612,-10.9134 -3.55519,14.386 -7.19298,26.3731 -10.8308,36.0475 -3.63779,9.75529 -7.27558,17.4455 -10.996,23.3152 -3.72039,5.78709 -7.60599,9.92214 -11.741,12.4845 -4.1334,2.47971 -8.43201,3.72039 -12.9801,3.72039 -3.38998,0 -6.77997,-0.826019 -10.2526,-2.56231 -3.47259,-1.65369 -6.69736,-4.96107 -9.59008,-9.75694 -2.89437,-4.87847 -5.29148,-11.7394 -7.11037,-20.5035 -1.9015,-8.76407 -2.81177,-20.4225 -2.81177,-34.7259 0,-3.55519 0.0826019,-7.93639 0.247806,-12.9801 0.166856,-5.12628 0.497264,-10.4178 0.992875,-16.0396 0.41301,-5.53929 1.07548,-10.996 1.73629,-16.4527 0.743417,-5.37408 1.73629,-10.2526 2.81177,-14.6354 0.495612,-1.9015 1.15643,-4.2986 1.9841,-7.02612 0.743417,-2.72917 1.57109,-4.54806 2.39711,-5.29148 1.73629,-1.65369 3.22478,-3.14218 4.46381,-4.38286 1.24068,-1.32328 2.23356,-1.9841 3.05958,-1.9841 1.07548,0 2.0667,0.495612 2.72917,1.40588 0.743417,0.826019 1.48849,1.32328 2.31451,1.32328 0.495612,0 1.40588,-0.414662 2.81177,-1.24068 1.40423,-0.827671 2.89272,-1.73629 4.46381,-2.64657 1.65369,-0.991223 3.22478,-1.9015 4.71327,-2.64491 1.57109,-0.827671 2.64491,-1.24068 3.30738,-1.24068 1.9015,0 2.89272,1.73629 2.89272,5.29148 0,0.992875 -0.0826019,2.1493 -0.247806,3.38998 -0.165204,1.32328 -0.41301,2.89437 -0.743417,4.63066 -1.40588,10.3335 -2.48136,20.3382 -2.97697,29.9283 -0.578214,9.59174 -0.910273,19.9269 -0.910273,30.8403 0,6.2001 0.084254,11.7394 0.249458,16.7831 0.165204,4.96107 0.578214,9.25968 1.15643,12.8975 0.497264,3.63779 1.48849,6.44956 2.72917,8.51626 1.32328,1.9841 3.05958,2.97697 5.37408,2.97697 3.22478,0 6.2001,-2.0667 8.92927,-6.36696 2.72752,-4.2986 5.29148,-9.83789 7.60599,-16.6179 2.39711,-6.77997 4.63066,-14.3034 6.69736,-22.4892 2.0667,-8.2668 4.1334,-16.2874 6.0349,-24.1412 1.9841,-7.85544 3.9682,-15.0484 5.95395,-21.6615 1.9841,-6.61476 4.0508,-11.6584 6.2001,-15.0484 2.0667,-3.22478 4.87847,-5.86969 8.35106,-7.93639 3.47259,-2.1493 6.69571,-3.14218 9.75529,-3.14218 3.55519,0 6.11915,1.32328 7.68859,3.9682 1.48849,2.64657 2.23356,7.77284 2.23356,15.3788 0,5.45668 -0.0826019,10.6656 -0.414662,15.4614 -0.330408,4.87682 -0.660815,9.92049 -0.991223,15.0468 -0.330408,5.20888 -0.660815,10.6656 -0.992875,16.6179 -0.330408,5.87135 -0.495612,12.4845 -0.495612,19.6774 0,6.69736 0.330408,12.0714 0.910273,16.1222 0.495612,4.13505 1.32163,7.35818 2.2319,9.59174 0.991223,2.2319 2.0667,3.80299 3.14218,4.62901 1.15643,0.745069 2.31451,1.15808 3.47259,1.15808 2.72752,0 5.29148,-1.15808 7.68859,-3.63779 2.47971,-2.39711 4.87847,-5.86969 7.44078,-10.5004 2.47971,-4.63066 5.04367,-10.2526 7.68859,-16.8657 2.72917,-6.61476 5.62354,-14.1381 8.84667,-22.4892 0.827671,-1.9841 1.81889,-3.47259 2.89437,-4.46546 1.15808,-1.07383 2.39711,-1.56944 3.63779,-1.56944 0.992875,0 1.81889,0.330408 2.56231,1.07383 0.745069,0.745069 1.07548,1.73629 1.07548,2.97697 0,1.15643 -0.247806,2.31451 -0.660815,3.38998z"/>
  <path class="fil1" d="M713.362 400.074l3.38998 -2.89437c3.38998,-3.05792 7.77119,-8.1842 12.9801,-15.2946 5.29148,-7.11037 10.5004,-17.1151 15.6266,-30.0126 1.81889,-4.0508 4.0508,-6.0349 6.77997,-6.0349 2.2319,0 3.38998,1.23903 3.38998,3.88559 0,0.908621 -0.249458,2.1493 -0.745069,3.55519 -3.72039,10.5004 -7.68859,19.5122 -11.9888,26.953 -4.216,7.35818 -8.67981,13.7251 -13.1453,18.8498 -4.54806,5.20888 -9.01187,9.34393 -13.4773,12.4845 -4.46381,3.14218 -8.59721,5.54094 -12.4845,7.11037 -4.216,6.36696 -9.09447,11.8236 -14.6338,16.3717 -5.53929,4.62901 -12.0698,6.94352 -19.5122,6.94352 -4.87682,0 -8.92927,-1.07383 -12.3193,-3.14053 -3.38833,-2.15095 -6.2001,-4.71327 -8.2668,-7.77284 -2.0667,-3.05792 -3.63779,-6.44791 -4.63066,-10.0857 -0.908621,-3.63779 -1.40588,-6.86257 -1.40588,-9.75694 0,-5.53929 0.662468,-10.4178 2.06835,-14.799 1.32163,-4.38286 2.97532,-8.10325 4.95942,-11.1612 1.9015,-3.05958 3.96985,-5.37408 6.11915,-6.86257 2.2319,-1.57109 4.0508,-2.31451 5.45668,-2.31451 1.9841,0 3.88559,1.56944 5.86969,4.79422 1.9015,3.30738 4.0508,7.77284 6.28436,13.6425 3.22313,8.68146 5.9523,14.9642 8.1842,18.8498 2.48136,-0.330408 4.79587,-0.660815 7.02777,-1.07383 2.31451,-0.41301 4.54806,-0.992875 6.77997,-1.81889 1.15808,-2.2319 1.73629,-4.30026 1.73629,-6.03655 0,-2.97532 -0.827671,-6.3653 -2.39711,-10.3335 -1.65369,-3.96985 -3.72039,-8.18585 -6.20175,-12.5671 -2.47971,-4.46546 -5.29148,-9.01187 -8.35106,-13.5599 -3.05792,-4.63066 -6.1175,-9.01187 -9.09447,-13.0627 -2.97532,-4.13505 -5.78709,-7.93805 -8.3494,-11.4106 -2.56396,-3.47259 -4.63066,-6.3653 -6.03655,-8.59886 -1.15643,3.72204 -2.1493,6.86257 -2.89272,9.59174 -0.827671,2.64491 -1.65369,4.96107 -2.48136,6.86257 -1.07383,3.22313 -2.1493,5.37408 -2.97532,6.44791 -0.910273,0.992875 -2.06835,1.57109 -3.55519,1.57109 -2.56396,0 -3.88725,-1.57109 -3.88725,-4.62901 0,-1.15808 0.166856,-2.15095 0.497264,-3.14218 1.32163,-4.21765 2.39711,-7.93805 3.30738,-11.2438 0.826019,-3.30738 1.65369,-6.11915 2.31451,-8.35106 0.578214,-2.81177 1.15808,-5.12628 1.65369,-7.02777 -2.72917,-3.38998 -5.20888,-7.35818 -7.35818,-11.741 -2.23356,-4.46381 -3.30738,-10.1683 -3.30738,-17.1135 0,-4.96107 0.908621,-10.5004 2.81012,-16.6195 1.81889,-6.0349 4.21765,-11.6568 7.11037,-16.9483 2.89437,-5.20888 6.11915,-9.59008 9.59174,-13.1453 3.47259,-3.55519 6.77997,-5.37408 10.0857,-5.37408 1.9015,0 3.63779,0.578214 5.20888,1.81889 1.48849,1.23903 2.81177,2.81012 3.80299,4.71161 1.07548,1.9841 1.90315,4.21765 2.48136,6.69736 0.578214,2.47971 0.826019,4.96107 0.826019,7.35818 0,5.53929 -0.991223,11.741 -2.89272,18.6862 -0.165204,0.660815 -0.414662,1.56944 -0.662468,2.72752 -0.165204,1.24068 -0.330408,2.47971 -0.330408,3.80299 0,4.71327 3.05958,11.2454 9.17707,19.5948 6.20175,8.43366 13.8077,17.8585 23.0674,28.3589 4.30026,5.04367 7.52338,10.2526 9.42488,15.8744 1.90315,5.53929 2.89437,11.9888 2.89437,19.2644 0,2.2319 -0.247806,4.71161 -0.743417,7.35818 -0.414662,2.64491 -0.992875,4.87847 -1.65369,6.69736l-5.12628 13.0627zm4.87847 -229.433c1.48683,1.32328 2.1493,2.81177 2.1493,4.63066 0,0.992875 -0.165204,1.9841 -0.578214,3.05958 -0.414662,0.991223 -0.745069,1.9015 -1.07548,2.72752 -1.48849,2.89437 -3.38998,6.03655 -5.78709,9.34228 -2.48136,3.30738 -5.53929,6.69736 -9.26133,10.17 -3.72039,3.47259 -8.1842,6.94517 -13.3931,10.4178 -5.29148,3.47259 -11.4916,6.94517 -18.7688,10.3352 -0.991223,0.41301 -1.9015,0.660815 -2.72752,0.660815 -2.2319,0 -3.38998,-1.24068 -3.38998,-3.88559 0,-1.24068 0.41301,-2.56231 1.24068,-3.80299 0.660815,-1.15808 2.0667,-3.22478 4.216,-6.20175 2.2319,-2.97532 4.63066,-6.77831 7.27558,-11.409 2.64657,-4.54806 5.37408,-9.83954 8.10325,-15.8744 2.81012,-5.9523 5.04367,-12.4845 6.77831,-19.5948 0.33206,-1.65369 1.07548,-2.81012 2.06835,-3.63779 1.07383,-0.826019 1.9841,-1.24068 2.81012,-1.24068 1.15808,0 2.0667,0.662468 2.89437,1.9841 1.48849,2.06835 2.97697,3.30738 4.46381,3.72204 1.57109,0.41301 2.64657,0.908621 3.30738,1.56944 1.48849,1.32328 2.81177,2.31616 4.13505,2.89437 1.23903,0.660815 3.14053,2.0667 5.53929,4.1334z"/>
  <path class="fil1" d="M835.477 345.838c0.992875,0 1.81889,0.330408 2.56396,1.07383 0.743417,0.745069 1.07383,1.73629 1.07383,2.97697 0,1.15643 -0.247806,2.31451 -0.743417,3.38998 -3.22478,9.42488 -6.36696,18.0237 -9.34228,25.7949 -2.97697,7.85544 -5.87135,15.131 -8.84667,21.7441 -2.72917,6.28436 -5.37408,11.6584 -7.85544,16.2048 -2.47971,4.54806 -4.87682,8.35106 -7.27558,11.4106 -2.31451,3.05958 -4.62901,5.53929 -7.02777,7.35818 -2.31451,1.81889 -4.71161,3.22478 -7.11037,3.9682 -2.39711,0.827671 -5.29148,1.24068 -8.51626,1.24068 -3.55519,0 -7.35818,-0.745069 -11.5742,-2.31451 -4.216,-1.48849 -8.10325,-4.46546 -11.741,-8.84667 -3.63779,-4.30026 -6.69571,-10.4178 -9.09447,-18.2732 -2.39711,-7.85379 -3.63779,-18.0237 -3.63779,-30.6734 0,-3.38998 0.165204,-9.09447 0.579866,-17.1961 0.41301,-8.02065 0.991223,-17.7759 1.73629,-29.1866 0.660815,-11.3264 1.56944,-24.2238 2.64491,-38.6098 1.07548,-14.386 2.2319,-29.517 3.47259,-45.5566 0.826019,-9.83789 1.81889,-20.5861 3.05958,-32.3271 1.23903,-11.6584 2.47971,-23.15 3.72039,-34.2286 1.32328,-11.1628 2.64491,-21.4137 3.88559,-30.756 1.32328,-9.42653 2.47971,-16.7847 3.38998,-22.0762 1.15808,-5.62189 3.30738,-10.0873 6.53216,-13.3105 3.22313,-3.22478 6.86092,-6.69736 10.9134,-10.4178 1.48683,-1.48849 2.97532,-3.05958 4.62901,-4.71327 1.57109,-1.73629 3.22478,-3.30738 4.87847,-4.71161 1.57109,-1.48849 3.14218,-2.72917 4.71327,-3.80465 1.48683,-0.991223 2.97532,-1.56944 4.46381,-1.56944 2.2319,0 3.38998,1.15643 3.38998,3.38833 0,1.81889 -0.41301,5.04367 -1.24068,9.67434 -0.826019,4.71327 -1.9015,12.2367 -3.38998,22.5718 -1.40423,10.3335 -3.14053,24.2238 -5.20723,41.752 -1.98575,17.5281 -4.13505,40.0157 -6.36696,67.466 -0.495612,5.53929 -1.07548,12.0698 -1.73629,19.5948 -0.660815,7.60599 -1.32328,15.625 -1.9015,24.1412 -0.660815,8.43366 -1.32328,17.1151 -1.81889,25.8792 -0.578214,8.84667 -1.15808,17.1135 -1.57109,24.9689 -0.495612,7.85379 -0.910273,14.9642 -1.24068,21.4137 -0.330408,6.53051 -0.495612,11.6568 -0.495612,15.5424 0,11.1628 1.15808,19.9269 3.55519,26.2922 2.31451,6.36696 6.20175,9.59174 11.741,9.59174 3.05792,0 5.78709,-1.40588 8.1842,-4.13505 2.48136,-2.72752 4.79587,-6.53051 7.02777,-11.2438 2.31451,-4.79587 4.63066,-10.3352 7.02777,-16.7831 2.47971,-6.36696 5.12628,-13.2295 8.02065,-20.6703 0.826019,-1.9841 1.73629,-3.47259 2.89272,-4.46546 1.15808,-1.07383 2.31451,-1.56944 3.63779,-1.56944z"/>
  <path class="fil1" d="M893.104 184.696c0.495612,0.992875 0.743417,2.0667 0.743417,3.14218 0,3.14218 -1.9841,6.36696 -5.86969,9.75529 -3.22478,2.89437 -6.2001,5.70614 -8.92927,8.43366 -2.72752,2.72917 -5.29148,5.20888 -7.52338,7.44078 -2.2319,2.15095 -4.2986,3.88725 -6.0349,5.20888 -1.81889,1.24068 -3.22478,1.9015 -4.38286,1.9015 -0.826019,0 -1.57109,-0.165204 -2.31451,-0.495612 -0.662468,-0.330408 -1.40588,-1.07548 -2.0667,-2.1493 -1.9015,-3.72039 -3.80299,-7.60599 -5.78874,-11.6584 -1.9015,-4.0508 -3.63779,-7.85379 -5.20888,-11.409 -1.48683,-3.55519 -2.81012,-6.61476 -3.72039,-9.25968 -0.991223,-2.72917 -1.48683,-4.54806 -1.48683,-5.45668 0,-1.81889 0.826019,-3.72039 2.39711,-5.87135 0.660815,-0.908621 2.1493,-2.81012 4.54641,-5.53929 2.31616,-2.72752 4.79587,-5.62189 7.44243,-8.68146 2.72752,-3.14053 5.20888,-5.9523 7.52338,-8.51461 2.39711,-2.56396 3.9682,-4.30026 4.71161,-5.04367 1.98575,-2.31451 3.55519,-3.47259 4.87847,-3.47259 1.48849,0 2.56396,1.07548 3.38998,3.22478 0.495612,1.07383 1.57109,3.55519 3.30738,7.19298 1.65369,3.72039 3.47259,7.77119 5.37408,11.9872 1.9841,4.30026 3.80299,8.35106 5.62189,12.0714 1.73629,3.63779 2.89437,6.11915 3.38998,7.19298zm32.2445 161.142c0.910273,0 1.73629,0.330408 2.47971,1.07383 0.745069,0.745069 1.07548,1.73629 1.07548,2.97697 0,1.15643 -0.165204,2.31451 -0.660815,3.38998 -3.72039,10.6656 -7.19298,20.4208 -10.3352,29.1023 -3.14218,8.68146 -6.28436,16.4527 -9.59008,23.2326 -4.63066,10.17 -9.09612,18.0237 -13.3947,23.3978 -4.2986,5.37408 -9.09447,9.01187 -14.386,10.7482 -1.32328,0.330408 -2.81177,0.662468 -4.38121,0.992875 -1.65369,0.330408 -3.30738,0.495612 -5.12628,0.495612 -4.05245,0 -8.35106,-0.826019 -12.8991,-2.39711 -4.62901,-1.65369 -8.92927,-4.71327 -12.8975,-9.25968 -3.9682,-4.46546 -7.19298,-10.8324 -9.75529,-19.0166 -2.64657,-8.10325 -3.88559,-18.7688 -3.88559,-31.8315 0,-11.6584 0.41301,-22.8196 1.15643,-33.5678 0.827671,-10.7482 2.0667,-21.5789 3.63779,-32.5749 2.48136,-4.96107 5.37408,-9.50748 8.84667,-13.6425 3.47259,-4.1334 7.02777,-7.68859 10.583,-10.6656 3.55519,-2.97532 6.77997,-5.29148 9.75694,-6.94517 2.97532,-1.56944 5.20888,-2.39711 6.69571,-2.39711 0.662468,0 0.992875,0.743417 0.992875,2.1493 0,1.32328 -0.247806,3.55519 -0.660815,6.69736 -0.414662,3.14218 -0.827671,7.52338 -1.32328,13.2279 -0.495612,5.62354 -0.992875,12.8165 -1.57109,21.6632 -0.578214,8.76407 -0.992875,19.5122 -1.32328,32.0793 0,7.27558 0.41301,13.9713 1.32328,20.0904 0.908621,6.1175 2.2319,11.4916 3.88559,16.0396 1.73629,4.46381 3.72039,8.019 6.20175,10.5004 2.39711,2.47971 5.04202,3.72039 7.93639,3.72039 2.81177,0 5.37408,-1.32328 7.77119,-3.9682 2.39876,-2.64657 4.87847,-6.36696 7.27558,-11.1628 2.39876,-4.71161 4.96107,-10.4178 7.52504,-16.9483 2.56231,-6.53216 5.29148,-13.5599 8.1842,-21.1659 1.65369,-4.0508 3.88559,-6.0349 6.86257,-6.0349z"/>
  <path class="fil1" d="M1123.61 393.542c0,-16.4527 0.41301,-32.0793 1.40588,-46.8782 0.991223,-14.799 2.0667,-29.1849 3.30573,-43.1579 1.15808,-13.9729 2.31616,-27.6155 3.38998,-40.926 0.992875,-13.3121 1.57109,-26.7052 1.57109,-40.3477 0,-12.0698 -0.743417,-23.563 -2.2319,-34.4764 -1.40588,-10.9134 -3.9682,-20.5051 -7.68859,-28.6893 -3.72039,-8.26845 -8.92927,-14.799 -15.544,-19.76 -6.61476,-4.87847 -15.0484,-7.35818 -25.2167,-7.35818 -9.67434,0 -18.4384,2.47971 -26.3748,7.52338 -7.93639,4.96107 -14.9642,11.6568 -21.1659,20.0904 -6.2001,8.35106 -11.6568,18.0237 -16.2874,29.0197 -4.54806,10.9976 -8.43366,22.4892 -11.4916,34.3954 -3.05958,11.9872 -5.37408,23.976 -7.02777,35.9649 -1.57109,12.0714 -2.48136,23.3152 -2.64657,33.8156 -0.165204,8.1016 -0.330408,15.7092 -0.495612,22.9848 -0.165204,7.27558 -0.41301,14.3034 -0.745069,21.0833 -0.578214,31.6646 -2.2319,56.8813 -4.79422,75.5676 -2.56396,18.7672 -4.87847,31.9141 -6.77997,39.5201 -1.15808,4.38121 -2.97697,7.35818 -5.45668,8.92927 -2.47971,1.65369 -5.29148,2.56231 -8.26845,2.89437 -2.97532,0.330408 -5.9523,0.495612 -8.92927,0.41301 -2.97532,-0.0826019 -5.53929,0.330408 -7.60599,1.32328 -2.97697,1.32163 -5.86969,1.9015 -8.76407,1.9015 -2.72752,0 -5.04367,-0.662468 -7.02777,-2.0667 -1.9015,-1.32328 -2.89272,-3.63944 -2.89272,-6.86257 0,-1.15808 0.0826019,-2.0667 0.247806,-2.89437 0.495612,-1.81889 1.23903,-5.70449 2.31451,-11.741 0.992875,-6.1175 2.2319,-13.3931 3.63779,-22.0745 1.32328,-8.59886 2.81177,-18.1889 4.2986,-28.6893 1.57109,-10.5004 2.97697,-21.0833 4.13505,-31.8315 1.23903,-10.7482 2.2319,-21.2485 3.05792,-31.4168 0.827671,-10.17 1.24068,-19.347 1.24068,-27.6155 0,-4.2986 -0.0826019,-10.8308 -0.165204,-19.347 -0.0826019,-8.59886 -0.165204,-18.4368 -0.330408,-29.6805 -0.165204,-11.2454 -0.495612,-23.3152 -0.910273,-36.2143 -0.330408,-12.8975 -0.991223,-25.7949 -1.81889,-38.6098 -0.743417,-12.8991 -1.73629,-25.2993 -2.89272,-37.2882 -1.07548,-12.0714 -2.48136,-22.8196 -4.05245,-32.4097 -0.330408,-1.57109 0.497264,-3.30738 2.64657,-5.04367 2.0667,-1.81889 4.0508,-3.55519 5.78709,-5.37408 1.15808,-1.07548 2.0667,-2.31616 2.81177,-3.55519 0.743417,-1.32328 1.32163,-2.48136 1.81889,-3.55519 0.495612,-1.07548 0.991223,-1.9015 1.57109,-2.64657 0.578214,-0.743417 1.23903,-1.23903 2.0667,-1.57109 2.89272,-0.991223 5.04367,-1.65204 6.3653,-1.9841 1.40588,-0.330408 2.48136,-0.578214 3.30738,-0.826019 0.827671,-0.247806 1.48849,-0.495612 2.1493,-0.745069 0.662468,-0.247806 1.73629,-0.660815 3.14218,-1.32163 1.32328,-0.662468 2.56396,-1.15808 3.63779,-1.65369 1.15808,-0.495612 2.1493,-0.745069 2.89437,-0.745069 4.54641,0 6.77997,4.63066 6.77997,13.8077 0.330408,7.11037 0.826019,15.131 1.48683,23.9777 0.497264,7.77119 0.992875,17.0309 1.57109,27.6964 0.579866,10.7482 1.07548,22.9848 1.57109,36.71 5.78709,-14.8006 12.3193,-27.3677 19.5122,-37.6186 7.19298,-10.2526 14.5512,-18.6862 22.0762,-25.301 7.44078,-6.69571 14.799,-11.7394 21.9919,-15.2946 7.19298,-3.55519 13.5583,-6.20175 19.1818,-7.85544 5.53929,-1.73629 10.0031,-2.64491 13.3931,-2.89272 3.38998,-0.247806 5.20888,-0.41301 5.37408,-0.41301 11.9062,0 22.324,1.65204 31.2533,4.95942 8.84667,3.30738 16.4527,7.85544 22.818,13.5599 6.44956,5.78709 11.6584,12.4845 15.7918,20.2556 4.13505,7.77284 7.35818,16.0396 9.67434,24.9689 2.31451,8.84667 3.9682,18.1063 4.96107,27.8633 0.991223,9.67269 1.48683,19.2644 1.48683,28.7719 0,9.50748 -0.330408,18.6846 -0.991223,27.5312 -0.662468,8.76407 -1.40588,16.9499 -2.1493,24.5559 -1.15808,10.6656 -2.23356,20.8355 -3.22478,30.5082 -0.910273,9.67434 -1.73629,19.2644 -2.48136,28.6067 -0.743417,9.34393 -1.32163,18.6862 -1.81889,27.9459 -0.495612,9.34228 -0.743417,18.8514 -0.743417,28.7719 0,20.7529 0.992875,39.6027 2.89437,56.3048 1.9841,16.7005 5.20723,31.8315 9.67269,45.3898 4.54806,13.5599 10.583,25.714 18.1063,36.4621 7.44078,10.7482 16.7847,20.4208 27.9459,29.1849 1.73629,1.48849 3.14218,2.64491 4.1334,3.47259 0.910273,0.908621 1.40588,1.9841 1.40588,3.30738 0,2.0667 -1.40588,3.14053 -4.30026,3.14053 -1.65204,0 -3.38833,-0.330408 -5.37408,-0.991223 -11.1612,-4.1334 -22.6528,-10.3352 -34.6416,-18.5194 -11.9062,-8.10325 -22.8196,-18.7688 -32.6575,-31.8315 -9.83954,-13.0643 -18.0237,-28.9388 -24.3907,-47.4581 -6.3653,-18.602 -9.50748,-40.5129 -9.50748,-65.6471z"/>
  <path class="fil1" d="M1255.07 420.412c3.88559,0 7.27558,-1.32163 10.1683,-3.88559 2.89437,-2.56231 5.37408,-5.9523 7.44243,-10.17 1.9841,-4.216 3.63779,-9.09447 4.95942,-14.6338 1.24068,-5.62189 2.23356,-11.3264 2.89437,-17.3613 -4.71327,-3.22478 -9.25968,-7.44243 -13.7251,-12.5671 -4.38121,-5.20888 -8.43366,-11.4932 -11.9888,-18.934 -2.0667,-4.30026 -3.63779,-8.76407 -4.54641,-13.3947 -0.992875,-4.62901 -1.48849,-9.01187 -1.48849,-13.2279 0,-5.29148 0.745069,-10.3352 2.1493,-14.9642 1.48849,-4.71327 3.63779,-8.76407 6.44956,-12.154 2.81177,-3.38998 6.36696,-6.11915 10.5004,-8.10325 4.216,-1.9841 9.09447,-3.05792 14.5512,-3.05792 6.94517,0 12.6497,1.65204 17.1151,4.95942 4.38121,3.30738 7.93639,7.52504 10.4987,12.6497 2.56396,5.04367 4.38286,10.583 5.45834,16.5369 1.07383,6.0349 1.56944,11.5742 1.56944,16.7831 0,6.77997 -0.41301,13.7251 -1.32163,20.8355 -0.910273,7.02777 -2.31616,14.2207 -4.21765,21.4963 5.95395,-0.495612 11.328,-2.1493 15.957,-4.96107 4.71327,-2.81177 8.68146,-7.60599 11.9062,-14.386 1.9015,-4.0508 3.9682,-6.0349 6.0349,-6.0349 1.15808,0 2.1493,0.330408 3.05958,0.908621 0.826019,0.660815 1.32328,1.73629 1.32328,3.14218 0,1.15643 -0.247806,2.31451 -0.745069,3.38998 -3.22313,9.25968 -8.59886,16.5353 -16.1222,21.8267 -7.52338,5.37408 -15.8744,8.019 -25.0515,8.019 -2.72752,7.93805 -6.1175,15.3788 -10.0857,22.4066 -3.96985,7.02777 -8.59886,13.1453 -13.8903,18.5194 -5.37408,5.29148 -11.4106,9.50913 -18.1889,12.5671 -6.77997,3.05958 -14.3034,4.63066 -22.4892,4.63066 -4.38121,0 -9.34228,-0.660815 -14.799,-1.9015 -5.45668,-1.32328 -10.6656,-4.0508 -15.544,-8.18585 -4.79587,-4.0508 -8.92927,-9.92049 -12.2367,-17.4439 -3.30738,-7.44243 -4.96107,-17.4455 -4.96107,-29.8474 0,-10.17 1.9015,-20.9181 5.70614,-32.2445 3.80299,-11.328 10.1683,-22.5718 19.015,-33.6504 3.38998,-4.216 6.53216,-7.19298 9.34228,-9.01187 2.81177,-1.73629 5.12628,-2.64657 6.94517,-2.64657 3.47259,0 5.29148,2.15095 5.29148,6.53216 0,1.9841 -0.660815,4.38286 -1.9015,7.27558 -1.32163,2.89437 -2.72752,6.61476 -4.1334,11.1612 -1.48849,4.54806 -2.81177,9.83954 -4.1334,16.1222 -1.32328,6.20175 -1.9841,13.4773 -1.9841,21.911 0,16.1222 2.31451,28.6893 6.94352,37.6186 4.63066,9.01187 10.6656,13.4757 18.2732,13.4757zm26.8704 -71.1863c0,-16.5353 -1.48849,-28.3572 -4.54806,-35.5502 -3.05958,-7.11037 -6.44791,-10.0047 -10.17,-8.59886 -1.65204,0.660815 -2.56231,2.1493 -2.81012,4.38121 -0.247806,2.31451 -0.330408,4.46546 -0.330408,6.53216 0,3.55519 0.41301,7.27558 1.40423,11.1612 0.992875,3.88559 2.23356,7.77119 3.80465,11.6584 1.48683,3.88559 3.38998,7.52338 5.53929,10.996 2.1493,3.47259 4.46381,6.69736 6.86257,9.59008 0.165204,-1.81889 0.247806,-3.47259 0.247806,-5.12628 0,-1.57109 0,-3.30738 0,-5.04367z"/>
  <path class="fil1" d="M1489.05 353.279c-3.22478,9.42488 -8.10325,16.7005 -14.5512,21.9919 -6.44956,5.20888 -13.8077,7.85379 -21.9936,7.85379 -4.216,0 -8.2668,-0.578214 -12.1524,-1.73629 -4.05245,9.09612 -8.68146,17.2803 -14.0555,24.7211 -5.29148,7.44243 -10.8308,13.8903 -16.5369,19.2644 -5.78709,5.37408 -11.4916,9.59174 -17.1135,12.5671 -5.62189,3.05958 -10.9134,4.54806 -15.7092,4.54806 -2.31451,0 -4.1334,-0.662468 -5.62189,-1.81889 -1.40588,-1.24068 -3.05958,-3.05958 -4.79587,-5.45668 -1.9841,-2.89437 -4.38121,-7.02777 -7.27558,-12.4019 -2.89437,-5.29148 -5.70449,-11.9888 -8.35106,-19.9252 -2.64491,-8.02065 -4.95942,-17.4455 -6.77831,-28.3589 -1.9015,-10.9134 -2.81177,-23.3978 -2.81177,-37.4534 0,-6.61476 0.330408,-12.154 1.07548,-16.6195 0.743417,-4.38121 1.56944,-8.1016 2.56231,-10.996 0.992875,-2.89272 1.9841,-5.20888 3.14218,-6.86257 1.15643,-1.73629 2.1493,-3.05792 3.14218,-4.0508 0.991223,-0.908621 1.9015,-1.81889 2.64491,-2.47971 0.827671,-0.745069 1.57109,-1.15808 2.2319,-1.15808 0.910273,0 1.81889,0.495612 2.64657,1.40588 0.826019,0.826019 1.57109,1.32328 2.39711,1.32328 0.660815,0 1.65369,-0.414662 2.89437,-1.24068 1.32163,-0.827671 2.64491,-1.73629 4.0508,-2.64657 1.32328,-0.991223 2.72917,-1.9015 4.1334,-2.64491 1.32328,-0.827671 2.39876,-1.24068 3.22478,-1.24068 0.827671,0 1.57109,0.41301 2.31451,1.32328 0.745069,0.908621 1.07548,2.47971 1.07548,4.71327 0,2.2319 -0.165204,4.2986 -0.495612,6.2001 -0.330408,1.81889 -0.662468,4.1334 -1.07548,6.77997 -0.41301,2.64491 -0.743417,5.9523 -1.07383,9.83789 -0.33206,3.80465 -0.497264,8.84667 -0.497264,14.9658 0,18.1063 1.81889,34.972 5.53929,50.5986 3.72039,15.7092 8.92927,28.5241 15.544,38.5288 1.57109,-2.23356 3.38998,-4.96107 5.45668,-8.10325 1.9841,-3.14218 4.0508,-6.86257 6.03655,-11.2438 1.9841,-4.38286 3.88559,-9.50748 5.53929,-15.3788 1.73629,-5.86969 3.22313,-12.7323 4.54641,-20.5035 -2.97532,-3.05958 -5.78709,-6.61476 -8.59886,-10.7482 -2.89272,-4.13505 -5.45668,-8.76407 -7.93639,-13.9729 -2.0667,-4.30026 -3.63779,-8.76407 -4.54806,-13.3947 -0.991223,-4.62901 -1.48683,-9.01187 -1.48683,-13.2279 0,-4.96107 0.660815,-9.75529 2.0667,-14.3034 1.40423,-4.46546 3.22478,-8.43366 5.53929,-11.741 2.39711,-3.30573 5.12628,-5.9523 8.43366,-7.85379 3.22313,-1.9015 6.69571,-2.89437 10.4161,-2.89437 8.84667,0 16.2048,3.96985 22.1588,11.9888 5.86969,8.02065 8.84667,19.1818 8.84667,33.5678 0,8.019 -0.827671,15.957 -2.31616,23.563 -1.56944,7.68859 -3.63779,15.131 -6.2001,22.4066 2.89437,0.826019 5.62189,1.23903 8.26845,1.23903 5.78709,0 10.996,-1.73629 15.7076,-5.12628 4.71327,-3.38833 8.35106,-8.43201 10.915,-15.212 1.40423,-4.0508 3.47093,-6.0349 6.0349,-6.0349 0.991223,0 1.9015,0.330408 2.81012,0.908621 0.910273,0.660815 1.32328,1.65369 1.32328,2.97697 0,0.908621 -0.247806,2.1493 -0.743417,3.55519zm-80.446 -36.7926c0,5.37408 1.07383,10.996 3.05792,17.1151 1.98575,6.0349 4.87847,11.7394 8.59886,17.0309 0.330408,-3.22478 0.579866,-6.61311 0.745069,-10.2509 0.165204,-3.63944 0.247806,-7.52504 0.247806,-11.4932 0,-8.1016 -0.495612,-14.8816 -1.48849,-20.2556 -0.910273,-5.37408 -2.72917,-8.02065 -5.29148,-7.85544 -1.32328,0 -2.39711,0.497264 -3.14218,1.57109 -0.826019,0.992875 -1.40588,2.39876 -1.81889,3.9682 -0.41301,1.65369 -0.660815,3.30738 -0.743417,5.12628 -0.0826019,1.73629 -0.165204,3.47259 -0.165204,5.04367z"/>
  <path class="fil1" d="M1600.17 345.838c0.991223,0 1.81889,0.330408 2.56231,0.908621 0.743417,0.660815 1.07548,1.65369 1.07548,2.97697 0,1.23903 -0.247806,2.47971 -0.662468,3.55519 -2.47971,6.77997 -5.04367,13.2279 -7.93639,19.1802 -2.81177,5.95395 -5.37408,11.328 -7.85544,15.957 -2.89272,5.37408 -5.70449,10.3352 -8.43201,15.0484 -3.38998,5.29148 -7.19298,10.3352 -11.328,15.1294 -4.0508,4.79587 -8.59721,8.92927 -13.3931,12.5671 -4.87847,3.63779 -10.0873,6.53216 -15.7918,8.59886 -5.62189,2.1493 -11.5742,3.14218 -17.8585,3.14218 -4.71327,0 -9.83954,-0.743417 -15.3788,-2.39711 -5.62189,-1.57109 -10.7482,-4.63066 -15.5424,-8.92927 -4.79587,-4.38286 -8.68146,-10.3352 -11.8236,-17.9411 -3.22478,-7.60764 -4.79587,-17.3629 -4.79587,-29.3518 0,-5.45668 0.579866,-10.996 1.57109,-16.7005 1.07548,-5.62189 2.56396,-10.996 4.38286,-16.2048 1.9015,-5.12628 3.9682,-10.0047 6.2827,-14.5512 2.39876,-4.46546 4.71327,-8.43366 7.19298,-11.8236 4.21765,-5.86969 8.59886,-11.3264 13.3121,-16.3701 4.71161,-5.12628 9.42488,-9.50913 14.1381,-13.3121 4.79422,-3.80299 9.42488,-6.77997 13.9713,-8.84667 4.46546,-2.1493 8.68146,-3.14053 12.5687,-3.14053 6.1175,0 11.4916,2.31451 16.1222,7.02612 4.62901,4.63066 6.86092,11.328 6.86092,20.0921 0,7.60599 -1.9015,15.4598 -5.78709,23.6456 -3.88559,8.10325 -8.68146,16.0396 -14.5512,23.8108 -5.78709,7.77284 -11.9888,14.9658 -18.602,21.5789 -6.61476,6.61476 -12.7339,12.0714 -18.1906,16.4543 2.89437,7.27558 6.61476,12.5671 11.1628,15.957 4.46381,3.38833 9.09447,5.12462 13.8061,5.12462 7.27558,0 13.7251,-2.31451 19.5122,-7.02612 5.70614,-4.71327 10.8308,-10.4178 15.4614,-17.1977 4.63066,-6.77997 8.68146,-13.8903 12.154,-21.3311 3.47259,-7.44078 6.53051,-13.9729 9.25968,-19.5948 0.992875,-1.9841 1.9841,-3.47259 2.97697,-4.46546 0.908621,-1.07383 2.1493,-1.56944 3.55519,-1.56944zm-94.1712 11.5742c0,9.59008 0.743417,17.9411 2.1493,25.2167 3.22478,-3.22478 6.53216,-6.94517 9.83954,-10.996 3.30573,-4.1334 6.2827,-8.35106 8.92927,-12.7323 2.64491,-4.38286 4.87682,-8.84667 6.53051,-13.3121 1.73629,-4.54641 2.56396,-8.92927 2.56396,-13.0627 0,-6.53216 -1.32328,-11.4916 -4.13505,-15.0468 -2.72752,-3.55519 -5.45668,-5.37408 -8.1842,-5.37408 -1.65369,0 -3.47259,1.07383 -5.45668,3.05792 -2.0667,1.9841 -3.96985,4.96107 -5.87135,8.84667 -1.81889,3.88725 -3.38833,8.59886 -4.54641,14.1381 -1.24068,5.62189 -1.81889,11.9888 -1.81889,19.2644z"/>
 </g>
</svg>
